<svg xmlns="http://www.w3.org/2000/svg" width="48" height="48" viewBox="0 0 48 48" version="1.1"><path d="M 21 30.500 C 21 30.775, 21.225 31, 21.500 31 C 21.775 31, 22 30.775, 22 30.500 C 22 30.225, 21.775 30, 21.500 30 C 21.225 30, 21 30.225, 21 30.500 M 28 30.500 C 28 30.775, 28.225 31, 28.500 31 C 28.775 31, 29 30.775, 29 30.500 C 29 30.225, 28.775 30, 28.500 30 C 28.225 30, 28 30.225, 28 30.500 M 35.500 31 C 35.840 31.550, 36.343 32, 36.618 32 C 36.893 32, 36.840 31.550, 36.500 31 C 36.160 30.450, 35.657 30, 35.382 30 C 35.107 30, 35.160 30.450, 35.500 31 M 11 31.500 C 11 31.775, 11.225 32, 11.500 32 C 11.775 32, 12 31.775, 12 31.500 C 12 31.225, 11.775 31, 11.500 31 C 11.225 31, 11 31.225, 11 31.500" stroke="none" fill="#8a3dff" fill-rule="evenodd"/><path d="" stroke="none" fill="#3a61ff" fill-rule="evenodd"/><path d="" stroke="none" fill="#375bff" fill-rule="evenodd"/><path d="M 27 12.500 C 27 12.775, 27.225 13, 27.500 13 C 27.775 13, 28 12.775, 28 12.500 C 28 12.225, 27.775 12, 27.500 12 C 27.225 12, 27 12.225, 27 12.500" stroke="none" fill="#3c5eff" fill-rule="evenodd"/><path d="M 29.269 12.693 C 30.242 12.947, 31.592 12.930, 32.269 12.656 C 32.946 12.382, 32.150 12.175, 30.500 12.195 C 28.850 12.215, 28.296 12.439, 29.269 12.693" stroke="none" fill="#3c5fff" fill-rule="evenodd"/><path d="M 28 8.500 C 28 8.775, 28.225 9, 28.500 9 C 28.775 9, 29 8.775, 29 8.500 C 29 8.225, 28.775 8, 28.500 8 C 28.225 8, 28 8.225, 28 8.500 M 31 8.500 C 31 8.775, 31.225 9, 31.500 9 C 31.775 9, 32 8.775, 32 8.500 C 32 8.225, 31.775 8, 31.500 8 C 31.225 8, 31 8.225, 31 8.500" stroke="none" fill="#78a8ff" fill-rule="evenodd"/><path d="M 29.333 7.667 C 29.700 8.033, 30.300 8.033, 30.667 7.667 C 31.033 7.300, 30.733 7, 30 7 C 29.267 7, 28.967 7.300, 29.333 7.667 M 28 11.500 C 28 11.775, 28.225 12, 28.500 12 C 28.775 12, 29 11.775, 29 11.500 C 29 11.225, 28.775 11, 28.500 11 C 28.225 11, 28 11.225, 28 11.500" stroke="none" fill="#5489ff" fill-rule="evenodd"/><path d="" stroke="none" fill="#2c66ff" fill-rule="evenodd"/><path d="M 26 8.500 C 26 8.775, 26.225 9, 26.500 9 C 26.775 9, 27 8.775, 27 8.500 C 27 8.225, 26.775 8, 26.500 8 C 26.225 8, 26 8.225, 26 8.500 M 33 9.500 C 33 9.775, 33.225 10, 33.500 10 C 33.775 10, 34 9.775, 34 9.500 C 34 9.225, 33.775 9, 33.500 9 C 33.225 9, 33 9.225, 33 9.500" stroke="none" fill="#2c65ff" fill-rule="evenodd"/><path d="M 26 10.500 C 26 10.775, 26.225 11, 26.500 11 C 26.775 11, 27 10.775, 27 10.500 C 27 10.225, 26.775 10, 26.500 10 C 26.225 10, 26 10.225, 26 10.500 M 33 10.500 C 33 10.775, 33.225 11, 33.500 11 C 33.775 11, 34 10.775, 34 10.500 C 34 10.225, 33.775 10, 33.500 10 C 33.225 10, 33 10.225, 33 10.500" stroke="none" fill="#3363ff" fill-rule="evenodd"/><path d="M 26 10.500 C 26 10.775, 26.225 11, 26.500 11 C 26.775 11, 27 10.775, 27 10.500 C 27 10.225, 26.775 10, 26.500 10 C 26.225 10, 26 10.225, 26 10.500 M 33 10.500 C 33 10.775, 33.225 11, 33.500 11 C 33.775 11, 34 10.775, 34 10.500 C 34 10.225, 33.775 10, 33.500 10 C 33.225 10, 33 10.225, 33 10.500" stroke="none" fill="#3363ff" fill-rule="evenodd"/><path d="M 26 10.500 C 26 10.775, 26.225 11, 26.500 11 C 26.775 11, 27 10.775, 27 10.500 C 27 10.225, 26.775 10, 26.500 10 C 26.225 10, 26 10.225, 26 10.500 M 33 10.500 C 33 10.775, 33.225 11, 33.500 11 C 33.775 11, 34 10.775, 34 10.500 C 34 10.225, 33.775 10, 33.500 10 C 33.225 10, 33 10.225, 33 10.500" stroke="none" fill="#3363ff" fill-rule="evenodd"/><path d="M 27 10.500 C 27 10.775, 27.225 11, 27.500 11 C 27.775 11, 28 10.775, 28 10.500 C 28 10.225, 27.775 10, 27.500 10 C 27.225 10, 27 10.225, 27 10.500" stroke="none" fill="#3664ff" fill-rule="evenodd"/><path d="" stroke="none" fill="#000000" fill-rule="evenodd"/><path d="M 15.333 21.667 C 15.700 22.033, 16.300 22.033, 16.667 21.667 C 17.033 21.300, 16.733 21, 16 21 C 15.267 21, 14.967 21.300, 15.333 21.667 M 22.269 21.693 C 23.242 21.947, 24.592 21.930, 25.269 21.656 C 25.946 21.382, 25.150 21.175, 23.500 21.195 C 21.850 21.215, 21.296 21.439, 22.269 21.693 M 38.813 21.683 C 39.534 21.972, 40.397 21.936, 40.729 21.604 C 41.061 21.272, 40.471 21.036, 39.417 21.079 C 38.252 21.127, 38.015 21.364, 38.813 21.683" stroke="none" fill="#614eff" fill-rule="evenodd"/><path d="M 17 32.500 C 17 32.775, 17.225 33, 17.500 33 C 17.775 33, 18 32.775, 18 32.500 C 18 32.225, 17.775 32, 17.500 32 C 17.225 32, 17 32.225, 17 32.500" stroke="none" fill="#8f3aff" fill-rule="evenodd"/><path d="" stroke="none" fill="#7e42ff" fill-rule="evenodd"/><path d="M 16.333 27.667 C 16.700 28.033, 17.300 28.033, 17.667 27.667 C 18.033 27.300, 17.733 27, 17 27 C 16.267 27, 15.967 27.300, 16.333 27.667" stroke="none" fill="#7b42ff" fill-rule="evenodd"/><path d="M 23 27.500 C 23 27.775, 23.225 28, 23.500 28 C 23.775 28, 24 27.775, 24 27.500 C 24 27.225, 23.775 27, 23.500 27 C 23.225 27, 23 27.225, 23 27.500" stroke="none" fill="#7a44ff" fill-rule="evenodd"/><path d="" stroke="none" fill="#6b4bff" fill-rule="evenodd"/><path d="M 38 23.500 C 38 23.775, 38.225 24, 38.500 24 C 38.775 24, 39 23.775, 39 23.500 C 39 23.225, 38.775 23, 38.500 23 C 38.225 23, 38 23.225, 38 23.500" stroke="none" fill="#694cff" fill-rule="evenodd"/><path d="M 31 16.500 C 31 16.775, 31.225 17, 31.500 17 C 31.775 17, 32 16.775, 32 16.500 C 32 16.225, 31.775 16, 31.500 16 C 31.225 16, 31 16.225, 31 16.500" stroke="none" fill="#4c59ff" fill-rule="evenodd"/><path d="M 31 16.500 C 31 16.775, 31.225 17, 31.500 17 C 31.775 17, 32 16.775, 32 16.500 C 32 16.225, 31.775 16, 31.500 16 C 31.225 16, 31 16.225, 31 16.500" stroke="none" fill="#4c59ff" fill-rule="evenodd"/><path d="M 40 15.500 C 40 15.775, 40.225 16, 40.500 16 C 40.775 16, 41 15.775, 41 15.500 C 41 15.225, 40.775 15, 40.500 15 C 40.225 15, 40 15.225, 40 15.500" stroke="none" fill="#495aff" fill-rule="evenodd"/><path d="M 18.333 17.667 C 18.700 18.033, 19.300 18.033, 19.667 17.667 C 20.033 17.300, 19.733 17, 19 17 C 18.267 17, 17.967 17.300, 18.333 17.667" stroke="none" fill="#5155ff" fill-rule="evenodd"/><path d="" stroke="none" fill="#000000" fill-rule="evenodd"/><path d="M 42 20.500 C 42 20.775, 42.225 21, 42.500 21 C 42.775 21, 43 20.775, 43 20.500 C 43 20.225, 42.775 20, 42.500 20 C 42.225 20, 42 20.225, 42 20.500" stroke="none" fill="#5c51ff" fill-rule="evenodd"/><path d="M 15.333 22.667 C 15.700 23.033, 16.300 23.033, 16.667 22.667 C 17.033 22.300, 16.733 22, 16 22 C 15.267 22, 14.967 22.300, 15.333 22.667 M 20.333 22.667 C 20.700 23.033, 21.300 23.033, 21.667 22.667 C 22.033 22.300, 21.733 22, 21 22 C 20.267 22, 19.967 22.300, 20.333 22.667 M 25 22.500 C 25 22.775, 25.225 23, 25.500 23 C 25.775 23, 26 22.775, 26 22.500 C 26 22.225, 25.775 22, 25.500 22 C 25.225 22, 25 22.225, 25 22.500 M 30.333 22.667 C 30.700 23.033, 31.300 23.033, 31.667 22.667 C 32.033 22.300, 31.733 22, 31 22 C 30.267 22, 29.967 22.300, 30.333 22.667 M 36.750 22.662 C 37.438 22.940, 38.563 22.940, 39.250 22.662 C 39.938 22.385, 39.375 22.158, 38 22.158 C 36.625 22.158, 36.063 22.385, 36.750 22.662" stroke="none" fill="#654dff" fill-rule="evenodd"/><path d="M 15 24.500 C 15 24.775, 15.225 25, 15.500 25 C 15.775 25, 16 24.775, 16 24.500 C 16 24.225, 15.775 24, 15.500 24 C 15.225 24, 15 24.225, 15 24.500 M 25 24.500 C 25 24.775, 25.225 25, 25.500 25 C 25.775 25, 26 24.775, 26 24.500 C 26 24.225, 25.775 24, 25.500 24 C 25.225 24, 25 24.225, 25 24.500 M 29 24.500 C 29 24.775, 29.225 25, 29.500 25 C 29.775 25, 30 24.775, 30 24.500 C 30 24.225, 29.775 24, 29.500 24 C 29.225 24, 29 24.225, 29 24.500 M 33 24.500 C 33 24.775, 33.225 25, 33.500 25 C 33.775 25, 34 24.775, 34 24.500 C 34 24.225, 33.775 24, 33.500 24 C 33.225 24, 33 24.225, 33 24.500 M 35.333 24.667 C 35.700 25.033, 36.300 25.033, 36.667 24.667 C 37.033 24.300, 36.733 24, 36 24 C 35.267 24, 34.967 24.300, 35.333 24.667" stroke="none" fill="#6e49ff" fill-rule="evenodd"/><path d="M 23 27.500 C 23 27.775, 23.225 28, 23.500 28 C 23.775 28, 24 27.775, 24 27.500 C 24 27.225, 23.775 27, 23.500 27 C 23.225 27, 23 27.225, 23 27.500" stroke="none" fill="#7a44ff" fill-rule="evenodd"/><path d="M 14 24.500 C 14 24.775, 14.225 25, 14.500 25 C 14.775 25, 15 24.775, 15 24.500 C 15 24.225, 14.775 24, 14.500 24 C 14.225 24, 14 24.225, 14 24.500 M 16 24.500 C 16 24.775, 16.225 25, 16.500 25 C 16.775 25, 17 24.775, 17 24.500 C 17 24.225, 16.775 24, 16.500 24 C 16.225 24, 16 24.225, 16 24.500 M 24 24.500 C 24 24.775, 24.225 25, 24.500 25 C 24.775 25, 25 24.775, 25 24.500 C 25 24.225, 24.775 24, 24.500 24 C 24.225 24, 24 24.225, 24 24.500" stroke="none" fill="#6e4aff" fill-rule="evenodd"/><path d="" stroke="none" fill="#7546ff" fill-rule="evenodd"/><path d="M 14.333 26.667 C 14.700 27.033, 15.300 27.033, 15.667 26.667 C 16.033 26.300, 15.733 26, 15 26 C 14.267 26, 13.967 26.300, 14.333 26.667" stroke="none" fill="#7745ff" fill-rule="evenodd"/><path d="M 14.333 26.667 C 14.700 27.033, 15.300 27.033, 15.667 26.667 C 16.033 26.300, 15.733 26, 15 26 C 14.267 26, 13.967 26.300, 14.333 26.667" stroke="none" fill="#7745ff" fill-rule="evenodd"/><path d="M 20 21.500 C 20 21.775, 20.225 22, 20.500 22 C 20.775 22, 21 21.775, 21 21.500 C 21 21.225, 20.775 21, 20.500 21 C 20.225 21, 20 21.225, 20 21.500 M 41 21.500 C 41 21.775, 41.225 22, 41.500 22 C 41.775 22, 42 21.775, 42 21.500 C 42 21.225, 41.775 21, 41.500 21 C 41.225 21, 41 21.225, 41 21.500" stroke="none" fill="#5f4fff" fill-rule="evenodd"/><path d="M 20 21.500 C 20 21.775, 20.225 22, 20.500 22 C 20.775 22, 21 21.775, 21 21.500 C 21 21.225, 20.775 21, 20.500 21 C 20.225 21, 20 21.225, 20 21.500 M 41 21.500 C 41 21.775, 41.225 22, 41.500 22 C 41.775 22, 42 21.775, 42 21.500 C 42 21.225, 41.775 21, 41.500 21 C 41.225 21, 41 21.225, 41 21.500" stroke="none" fill="#5f4fff" fill-rule="evenodd"/><path d="M 20 21.500 C 20 21.775, 20.225 22, 20.500 22 C 20.775 22, 21 21.775, 21 21.500 C 21 21.225, 20.775 21, 20.500 21 C 20.225 21, 20 21.225, 20 21.500 M 41 21.500 C 41 21.775, 41.225 22, 41.500 22 C 41.775 22, 42 21.775, 42 21.500 C 42 21.225, 41.775 21, 41.500 21 C 41.225 21, 41 21.225, 41 21.500" stroke="none" fill="#5f4fff" fill-rule="evenodd"/><path d="M 29 21.500 C 29 21.775, 29.225 22, 29.500 22 C 29.775 22, 30 21.775, 30 21.500 C 30 21.225, 29.775 21, 29.500 21 C 29.225 21, 29 21.225, 29 21.500" stroke="none" fill="#624eff" fill-rule="evenodd"/><path d="M 29 21.500 C 29 21.775, 29.225 22, 29.500 22 C 29.775 22, 30 21.775, 30 21.500 C 30 21.225, 29.775 21, 29.500 21 C 29.225 21, 29 21.225, 29 21.500" stroke="none" fill="#624eff" fill-rule="evenodd"/><path d="" stroke="none" fill="#684cff" fill-rule="evenodd"/><path d="" stroke="none" fill="#6a4aff" fill-rule="evenodd"/><path d="" stroke="none" fill="#000000" fill-rule="evenodd"/><path d="" stroke="none" fill="#000000" fill-rule="evenodd"/><path d="M 15.750 28.662 C 16.438 28.940, 17.563 28.940, 18.250 28.662 C 18.938 28.385, 18.375 28.158, 17 28.158 C 15.625 28.158, 15.063 28.385, 15.750 28.662 M 23 28.500 C 23 28.775, 23.225 29, 23.500 29 C 23.775 29, 24 28.775, 24 28.500 C 24 28.225, 23.775 28, 23.500 28 C 23.225 28, 23 28.225, 23 28.500 M 28.750 28.662 C 29.438 28.940, 30.563 28.940, 31.250 28.662 C 31.938 28.385, 31.375 28.158, 30 28.158 C 28.625 28.158, 28.063 28.385, 28.750 28.662" stroke="none" fill="#8042ff" fill-rule="evenodd"/><path d="M 23 26.500 C 23 26.775, 23.225 27, 23.500 27 C 23.775 27, 24 26.775, 24 26.500 C 24 26.225, 23.775 26, 23.500 26 C 23.225 26, 23 26.225, 23 26.500" stroke="none" fill="#7945ff" fill-rule="evenodd"/><path d="M 23 26.500 C 23 26.775, 23.225 27, 23.500 27 C 23.775 27, 24 26.775, 24 26.500 C 24 26.225, 23.775 26, 23.500 26 C 23.225 26, 23 26.225, 23 26.500" stroke="none" fill="#7945ff" fill-rule="evenodd"/><path d="" stroke="none" fill="#7941ff" fill-rule="evenodd"/><path d="M 14.333 27.667 C 14.700 28.033, 15.300 28.033, 15.667 27.667 C 16.033 27.300, 15.733 27, 15 27 C 14.267 27, 13.967 27.300, 14.333 27.667 M 18.333 27.667 C 18.700 28.033, 19.300 28.033, 19.667 27.667 C 20.033 27.300, 19.733 27, 19 27 C 18.267 27, 17.967 27.300, 18.333 27.667 M 24 27.500 C 24 27.775, 24.225 28, 24.500 28 C 24.775 28, 25 27.775, 25 27.500 C 25 27.225, 24.775 27, 24.500 27 C 24.225 27, 24 27.225, 24 27.500 M 28.333 27.667 C 28.700 28.033, 29.300 28.033, 29.667 27.667 C 30.033 27.300, 29.733 27, 29 27 C 28.267 27, 27.967 27.300, 28.333 27.667 M 22 28.500 C 22 28.775, 22.225 29, 22.500 29 C 22.775 29, 23 28.775, 23 28.500 C 23 28.225, 22.775 28, 22.500 28 C 22.225 28, 22 28.225, 22 28.500" stroke="none" fill="#7b43ff" fill-rule="evenodd"/><path d="M 29.405 26.155 C 28.962 26.870, 29.130 27.038, 29.845 26.595 C 30.480 26.203, 31 25.684, 31 25.441 C 31 24.607, 30.117 25.002, 29.405 26.155 M 18.333 26.667 C 18.700 27.033, 19.300 27.033, 19.667 26.667 C 20.033 26.300, 19.733 26, 19 26 C 18.267 26, 17.967 26.300, 18.333 26.667 M 24.333 26.667 C 24.700 27.033, 25.300 27.033, 25.667 26.667 C 26.033 26.300, 25.733 26, 25 26 C 24.267 26, 23.967 26.300, 24.333 26.667" stroke="none" fill="#7545ff" fill-rule="evenodd"/><path d="" stroke="none" fill="#6f48ff" fill-rule="evenodd"/><path d="M 16 23.500 C 16 23.775, 16.225 24, 16.500 24 C 16.775 24, 17 23.775, 17 23.500 C 17 23.225, 16.775 23, 16.500 23 C 16.225 23, 16 23.225, 16 23.500 M 19 23.500 C 19 23.775, 19.225 24, 19.500 24 C 19.775 24, 20 23.775, 20 23.500 C 20 23.225, 19.775 23, 19.500 23 C 19.225 23, 19 23.225, 19 23.500" stroke="none" fill="#684bff" fill-rule="evenodd"/><path d="M 16 23.500 C 16 23.775, 16.225 24, 16.500 24 C 16.775 24, 17 23.775, 17 23.500 C 17 23.225, 16.775 23, 16.500 23 C 16.225 23, 16 23.225, 16 23.500 M 19 23.500 C 19 23.775, 19.225 24, 19.500 24 C 19.775 24, 20 23.775, 20 23.500 C 20 23.225, 19.775 23, 19.500 23 C 19.225 23, 19 23.225, 19 23.500" stroke="none" fill="#684bff" fill-rule="evenodd"/><path d="" stroke="none" fill="#734dff" fill-rule="evenodd"/><path d="" stroke="none" fill="#7943ff" fill-rule="evenodd"/><path d="M 16 32.500 C 16 32.775, 16.225 33, 16.500 33 C 16.775 33, 17 32.775, 17 32.500 C 17 32.225, 16.775 32, 16.500 32 C 16.225 32, 16 32.225, 16 32.500 M 21 32.500 C 21 32.775, 21.225 33, 21.500 33 C 21.775 33, 22 32.775, 22 32.500 C 22 32.225, 21.775 32, 21.500 32 C 21.225 32, 21 32.225, 21 32.500 M 25 32.500 C 25 32.775, 25.225 33, 25.500 33 C 25.775 33, 26 32.775, 26 32.500 C 26 32.225, 25.775 32, 25.500 32 C 25.225 32, 25 32.225, 25 32.500 M 34 32.500 C 34 32.775, 34.225 33, 34.500 33 C 34.775 33, 35 32.775, 35 32.500 C 35 32.225, 34.775 32, 34.500 32 C 34.225 32, 34 32.225, 34 32.500" stroke="none" fill="#903bff" fill-rule="evenodd"/><path d="M 10.250 32.689 C 11.213 32.941, 12.787 32.941, 13.750 32.689 C 14.713 32.438, 13.925 32.232, 12 32.232 C 10.075 32.232, 9.287 32.438, 10.250 32.689 M 19.333 32.667 C 19.700 33.033, 20.300 33.033, 20.667 32.667 C 21.033 32.300, 20.733 32, 20 32 C 19.267 32, 18.967 32.300, 19.333 32.667 M 26.750 32.662 C 27.438 32.940, 28.563 32.940, 29.250 32.662 C 29.938 32.385, 29.375 32.158, 28 32.158 C 26.625 32.158, 26.063 32.385, 26.750 32.662 M 35.333 32.667 C 35.700 33.033, 36.300 33.033, 36.667 32.667 C 37.033 32.300, 36.733 32, 36 32 C 35.267 32, 34.967 32.300, 35.333 32.667" stroke="none" fill="#903aff" fill-rule="evenodd"/><path d="M 27 33.500 C 27 33.775, 27.225 34, 27.500 34 C 27.775 34, 28 33.775, 28 33.500 C 28 33.225, 27.775 33, 27.500 33 C 27.225 33, 27 33.225, 27 33.500" stroke="none" fill="#9239ff" fill-rule="evenodd"/><path d="M 27 33.500 C 27 33.775, 27.225 34, 27.500 34 C 27.775 34, 28 33.775, 28 33.500 C 28 33.225, 27.775 33, 27.500 33 C 27.225 33, 27 33.225, 27 33.500" stroke="none" fill="#9239ff" fill-rule="evenodd"/><path d="" stroke="none" fill="#9139ff" fill-rule="evenodd"/><path d="M 15 32.500 C 15 32.775, 15.225 33, 15.500 33 C 15.775 33, 16 32.775, 16 32.500 C 16 32.225, 15.775 32, 15.500 32 C 15.225 32, 15 32.225, 15 32.500" stroke="none" fill="#9039ff" fill-rule="evenodd"/><path d="M 22 31.500 C 22 31.775, 22.225 32, 22.500 32 C 22.775 32, 23 31.775, 23 31.500 C 23 31.225, 22.775 31, 22.500 31 C 22.225 31, 22 31.225, 22 31.500" stroke="none" fill="#8e3aff" fill-rule="evenodd"/><path d="M 12.333 31.667 C 12.700 32.033, 13.300 32.033, 13.667 31.667 C 14.033 31.300, 13.733 31, 13 31 C 12.267 31, 11.967 31.300, 12.333 31.667 M 28 31.500 C 28 31.775, 28.225 32, 28.500 32 C 28.775 32, 29 31.775, 29 31.500 C 29 31.225, 28.775 31, 28.500 31 C 28.225 31, 28 31.225, 28 31.500 M 34 31.500 C 34 31.775, 34.225 32, 34.500 32 C 34.775 32, 35 31.775, 35 31.500 C 35 31.225, 34.775 31, 34.500 31 C 34.225 31, 34 31.225, 34 31.500" stroke="none" fill="#8e3bff" fill-rule="evenodd"/><path d="" stroke="none" fill="#8f38ff" fill-rule="evenodd"/><path d="" stroke="none" fill="#8f38ff" fill-rule="evenodd"/><path d="M 8 34.500 C 8 34.775, 8.225 35, 8.500 35 C 8.775 35, 9 34.775, 9 34.500 C 9 34.225, 8.775 34, 8.500 34 C 8.225 34, 8 34.225, 8 34.500 M 36 34.500 C 36 34.775, 36.225 35, 36.500 35 C 36.775 35, 37 34.775, 37 34.500 C 37 34.225, 36.775 34, 36.500 34 C 36.225 34, 36 34.225, 36 34.500 M 38 35.500 C 38 35.775, 38.225 36, 38.500 36 C 38.775 36, 39 35.775, 39 35.500 C 39 35.225, 38.775 35, 38.500 35 C 38.225 35, 38 35.225, 38 35.500" stroke="none" fill="#9936ff" fill-rule="evenodd"/><path d="M 22 35.500 C 22 35.775, 22.225 36, 22.500 36 C 22.775 36, 23 35.775, 23 35.500 C 23 35.225, 22.775 35, 22.500 35 C 22.225 35, 22 35.225, 22 35.500 M 31 35.500 C 31 35.775, 31.225 36, 31.500 36 C 31.775 36, 32 35.775, 32 35.500 C 32 35.225, 31.775 35, 31.500 35 C 31.225 35, 31 35.225, 31 35.500" stroke="none" fill="#9c35ff" fill-rule="evenodd"/><path d="" stroke="none" fill="#000000" fill-rule="evenodd"/><path d="M 16 36.500 C 16 36.775, 16.225 37, 16.500 37 C 16.775 37, 17 36.775, 17 36.500 C 17 36.225, 16.775 36, 16.500 36 C 16.225 36, 16 36.225, 16 36.500" stroke="none" fill="#a437ff" fill-rule="evenodd"/><path d="M 34 37.500 C 34 37.775, 34.225 38, 34.500 38 C 34.775 38, 35 37.775, 35 37.500 C 35 37.225, 34.775 37, 34.500 37 C 34.225 37, 34 37.225, 34 37.500 M 19 38.500 C 19 38.775, 19.225 39, 19.500 39 C 19.775 39, 20 38.775, 20 38.500 C 20 38.225, 19.775 38, 19.500 38 C 19.225 38, 19 38.225, 19 38.500" stroke="none" fill="#a72fff" fill-rule="evenodd"/><path d="M 15 38.500 C 15 38.775, 15.225 39, 15.500 39 C 15.775 39, 16 38.775, 16 38.500 C 16 38.225, 15.775 38, 15.500 38 C 15.225 38, 15 38.225, 15 38.500 M 32 38.500 C 32 38.775, 32.225 39, 32.500 39 C 32.775 39, 33 38.775, 33 38.500 C 33 38.225, 32.775 38, 32.500 38 C 32.225 38, 32 38.225, 32 38.500" stroke="none" fill="#a730ff" fill-rule="evenodd"/><path d="M 12.728 37.722 C 14.503 37.943, 17.653 37.946, 19.728 37.730 C 21.802 37.513, 20.350 37.333, 16.500 37.328 C 12.650 37.324, 10.952 37.501, 12.728 37.722 M 32.333 37.667 C 32.700 38.033, 33.300 38.033, 33.667 37.667 C 34.033 37.300, 33.733 37, 33 37 C 32.267 37, 31.967 37.300, 32.333 37.667 M 37.333 37.667 C 37.700 38.033, 38.300 38.033, 38.667 37.667 C 39.033 37.300, 38.733 37, 38 37 C 37.267 37, 36.967 37.300, 37.333 37.667" stroke="none" fill="#a531ff" fill-rule="evenodd"/><path d="M 18 34.500 C 18 34.775, 18.225 35, 18.500 35 C 18.775 35, 19 34.775, 19 34.500 C 19 34.225, 18.775 34, 18.500 34 C 18.225 34, 18 34.225, 18 34.500" stroke="none" fill="#9835ff" fill-rule="evenodd"/><path d="M 18 32.500 C 18 32.775, 18.225 33, 18.500 33 C 18.775 33, 19 32.775, 19 32.500 C 19 32.225, 18.775 32, 18.500 32 C 18.225 32, 18 32.225, 18 32.500" stroke="none" fill="#923aff" fill-rule="evenodd"/><path d="M 8.813 33.683 C 9.534 33.972, 10.397 33.936, 10.729 33.604 C 11.061 33.272, 10.471 33.036, 9.417 33.079 C 8.252 33.127, 8.015 33.364, 8.813 33.683 M 14.264 33.718 C 15.784 33.947, 18.034 33.941, 19.264 33.704 C 20.494 33.467, 19.250 33.279, 16.500 33.286 C 13.750 33.294, 12.744 33.488, 14.264 33.718 M 24.813 33.683 C 25.534 33.972, 26.397 33.936, 26.729 33.604 C 27.061 33.272, 26.471 33.036, 25.417 33.079 C 24.252 33.127, 24.015 33.364, 24.813 33.683 M 28.750 33.662 C 29.438 33.940, 30.563 33.940, 31.250 33.662 C 31.938 33.385, 31.375 33.158, 30 33.158 C 28.625 33.158, 28.063 33.385, 28.750 33.662 M 35.813 33.683 C 36.534 33.972, 37.397 33.936, 37.729 33.604 C 38.061 33.272, 37.471 33.036, 36.417 33.079 C 35.252 33.127, 35.015 33.364, 35.813 33.683" stroke="none" fill="#9439ff" fill-rule="evenodd"/><path d="" stroke="none" fill="#bf40ff" fill-rule="evenodd"/><path d="" stroke="none" fill="#000000" fill-rule="evenodd"/><path d="" stroke="none" fill="#ff00ff" fill-rule="evenodd"/><path d="" stroke="none" fill="#ff00ff" fill-rule="evenodd"/><path d="M 34.813 42.683 C 35.534 42.972, 36.397 42.936, 36.729 42.604 C 37.061 42.272, 36.471 42.036, 35.417 42.079 C 34.252 42.127, 34.015 42.364, 34.813 42.683 M 39.333 42.667 C 39.700 43.033, 40.300 43.033, 40.667 42.667 C 41.033 42.300, 40.733 42, 40 42 C 39.267 42, 38.967 42.300, 39.333 42.667" stroke="none" fill="#bb28ff" fill-rule="evenodd"/><path d="M 33.333 39.667 C 33.700 40.033, 34.300 40.033, 34.667 39.667 C 35.033 39.300, 34.733 39, 34 39 C 33.267 39, 32.967 39.300, 33.333 39.667 M 38.333 39.667 C 38.700 40.033, 39.300 40.033, 39.667 39.667 C 40.033 39.300, 39.733 39, 39 39 C 38.267 39, 37.967 39.300, 38.333 39.667" stroke="none" fill="#af2cff" fill-rule="evenodd"/><path d="M 17 38.500 C 17 38.775, 17.225 39, 17.500 39 C 17.775 39, 18 38.775, 18 38.500 C 18 38.225, 17.775 38, 17.500 38 C 17.225 38, 17 38.225, 17 38.500 M 20 38.500 C 20 38.775, 20.225 39, 20.500 39 C 20.775 39, 21 38.775, 21 38.500 C 21 38.225, 20.775 38, 20.500 38 C 20.225 38, 20 38.225, 20 38.500 M 34 38.500 C 34 38.775, 34.225 39, 34.500 39 C 34.775 39, 35 38.775, 35 38.500 C 35 38.225, 34.775 38, 34.500 38 C 34.225 38, 34 38.225, 34 38.500 M 39 38.500 C 39 38.775, 39.225 39, 39.500 39 C 39.775 39, 40 38.775, 40 38.500 C 40 38.225, 39.775 38, 39.500 38 C 39.225 38, 39 38.225, 39 38.500" stroke="none" fill="#a830ff" fill-rule="evenodd"/><path d="M 10 35.500 C 10 35.775, 10.225 36, 10.500 36 C 10.775 36, 11 35.775, 11 35.500 C 11 35.225, 10.775 35, 10.500 35 C 10.225 35, 10 35.225, 10 35.500" stroke="none" fill="#9b35ff" fill-rule="evenodd"/><path d="M 9 34.500 C 9 34.775, 9.225 35, 9.500 35 C 9.775 35, 10 34.775, 10 34.500 C 10 34.225, 9.775 34, 9.500 34 C 9.225 34, 9 34.225, 9 34.500 M 23.813 34.683 C 24.534 34.972, 25.397 34.936, 25.729 34.604 C 26.061 34.272, 25.471 34.036, 24.417 34.079 C 23.252 34.127, 23.015 34.364, 23.813 34.683 M 29.750 34.662 C 30.438 34.940, 31.563 34.940, 32.250 34.662 C 32.938 34.385, 32.375 34.158, 31 34.158 C 29.625 34.158, 29.063 34.385, 29.750 34.662 M 37 34.500 C 37 34.775, 37.225 35, 37.500 35 C 37.775 35, 38 34.775, 38 34.500 C 38 34.225, 37.775 34, 37.500 34 C 37.225 34, 37 34.225, 37 34.500" stroke="none" fill="#9737ff" fill-rule="evenodd"/><path d="M 21.733 30.124 C 22.412 30.808, 23.219 31.115, 23.526 30.807 C 23.834 30.499, 23.279 29.940, 22.293 29.564 C 20.868 29.022, 20.753 29.136, 21.733 30.124 M 27 30.500 C 27 30.775, 27.225 31, 27.500 31 C 27.775 31, 28 30.775, 28 30.500 C 28 30.225, 27.775 30, 27.500 30 C 27.225 30, 27 30.225, 27 30.500 M 31.750 30.662 C 32.438 30.940, 33.563 30.940, 34.250 30.662 C 34.938 30.385, 34.375 30.158, 33 30.158 C 31.625 30.158, 31.063 30.385, 31.750 30.662" stroke="none" fill="#853fff" fill-rule="evenodd"/><path d="M 17 29.500 C 17 29.775, 17.225 30, 17.500 30 C 17.775 30, 18 29.775, 18 29.500 C 18 29.225, 17.775 29, 17.500 29 C 17.225 29, 17 29.225, 17 29.500 M 27 29.500 C 27 29.775, 27.225 30, 27.500 30 C 27.775 30, 28 29.775, 28 29.500 C 28 29.225, 27.775 29, 27.500 29 C 27.225 29, 27 29.225, 27 29.500" stroke="none" fill="#8240ff" fill-rule="evenodd"/><path d="M 19 28.500 C 19 28.775, 19.225 29, 19.500 29 C 19.775 29, 20 28.775, 20 28.500 C 20 28.225, 19.775 28, 19.500 28 C 19.225 28, 19 28.225, 19 28.500" stroke="none" fill="#7d41ff" fill-rule="evenodd"/><path d="M 19 28.500 C 19 28.775, 19.225 29, 19.500 29 C 19.775 29, 20 28.775, 20 28.500 C 20 28.225, 19.775 28, 19.500 28 C 19.225 28, 19 28.225, 19 28.500" stroke="none" fill="#7d41ff" fill-rule="evenodd"/><path d="M 20 26.500 C 20 26.775, 20.225 27, 20.500 27 C 20.775 27, 21 26.775, 21 26.500 C 21 26.225, 20.775 26, 20.500 26 C 20.225 26, 20 26.225, 20 26.500 M 28 26.500 C 28 26.775, 28.225 27, 28.500 27 C 28.775 27, 29 26.775, 29 26.500 C 29 26.225, 28.775 26, 28.500 26 C 28.225 26, 28 26.225, 28 26.500" stroke="none" fill="#7646ff" fill-rule="evenodd"/><path d="" stroke="none" fill="#0000ff" fill-rule="evenodd"/><path d="M 19 24.500 C 19 24.775, 19.225 25, 19.500 25 C 19.775 25, 20 24.775, 20 24.500 C 20 24.225, 19.775 24, 19.500 24 C 19.225 24, 19 24.225, 19 24.500 M 32 24.500 C 32 24.775, 32.225 25, 32.500 25 C 32.775 25, 33 24.775, 33 24.500 C 33 24.225, 32.775 24, 32.500 24 C 32.225 24, 32 24.225, 32 24.500 M 34 24.500 C 34 24.775, 34.225 25, 34.500 25 C 34.775 25, 35 24.775, 35 24.500 C 35 24.225, 34.775 24, 34.500 24 C 34.225 24, 34 24.225, 34 24.500" stroke="none" fill="#6e48ff" fill-rule="evenodd"/><path d="M 28 25.500 C 28 25.775, 28.225 26, 28.500 26 C 28.775 26, 29 25.775, 29 25.500 C 29 25.225, 28.775 25, 28.500 25 C 28.225 25, 28 25.225, 28 25.500" stroke="none" fill="#7248ff" fill-rule="evenodd"/><path d="M 20 24.500 C 20 24.775, 20.225 25, 20.500 25 C 20.775 25, 21 24.775, 21 24.500 C 21 24.225, 20.775 24, 20.500 24 C 20.225 24, 20 24.225, 20 24.500 M 30.333 24.667 C 30.700 25.033, 31.300 25.033, 31.667 24.667 C 32.033 24.300, 31.733 24, 31 24 C 30.267 24, 29.967 24.300, 30.333 24.667" stroke="none" fill="#6d49ff" fill-rule="evenodd"/><path d="" stroke="none" fill="#674bff" fill-rule="evenodd"/><path d="M 20 21.500 C 20 21.775, 20.225 22, 20.500 22 C 20.775 22, 21 21.775, 21 21.500 C 21 21.225, 20.775 21, 20.500 21 C 20.225 21, 20 21.225, 20 21.500 M 41 21.500 C 41 21.775, 41.225 22, 41.500 22 C 41.775 22, 42 21.775, 42 21.500 C 42 21.225, 41.775 21, 41.500 21 C 41.225 21, 41 21.225, 41 21.500" stroke="none" fill="#5f4fff" fill-rule="evenodd"/><path d="M 16.333 20.667 C 16.700 21.033, 17.300 21.033, 17.667 20.667 C 18.033 20.300, 17.733 20, 17 20 C 16.267 20, 15.967 20.300, 16.333 20.667 M 23.750 20.662 C 24.438 20.940, 25.563 20.940, 26.250 20.662 C 26.938 20.385, 26.375 20.158, 25 20.158 C 23.625 20.158, 23.063 20.385, 23.750 20.662 M 40.333 20.667 C 40.700 21.033, 41.300 21.033, 41.667 20.667 C 42.033 20.300, 41.733 20, 41 20 C 40.267 20, 39.967 20.300, 40.333 20.667" stroke="none" fill="#5d50ff" fill-rule="evenodd"/><path d="M 17.750 18.662 C 18.438 18.940, 19.563 18.940, 20.250 18.662 C 20.938 18.385, 20.375 18.158, 19 18.158 C 17.625 18.158, 17.063 18.385, 17.750 18.662 M 25.333 18.667 C 25.700 19.033, 26.300 19.033, 26.667 18.667 C 27.033 18.300, 26.733 18, 26 18 C 25.267 18, 24.967 18.300, 25.333 18.667 M 32.762 18.707 C 34.006 18.946, 35.806 18.937, 36.762 18.687 C 37.718 18.437, 36.700 18.241, 34.500 18.252 C 32.300 18.263, 31.518 18.468, 32.762 18.707 M 41.333 18.667 C 41.700 19.033, 42.300 19.033, 42.667 18.667 C 43.033 18.300, 42.733 18, 42 18 C 41.267 18, 40.967 18.300, 41.333 18.667" stroke="none" fill="#5555ff" fill-rule="evenodd"/><path d="" stroke="none" fill="#5753ff" fill-rule="evenodd"/><path d="M 42 19.500 C 42 19.775, 42.225 20, 42.500 20 C 42.775 20, 43 19.775, 43 19.500 C 43 19.225, 42.775 19, 42.500 19 C 42.225 19, 42 19.225, 42 19.500" stroke="none" fill="#5752ff" fill-rule="evenodd"/><path d="" stroke="none" fill="#5953ff" fill-rule="evenodd"/><path d="M 39 15.500 C 39 15.775, 39.225 16, 39.500 16 C 39.775 16, 40 15.775, 40 15.500 C 40 15.225, 39.775 15, 39.500 15 C 39.225 15, 39 15.225, 39 15.500" stroke="none" fill="#4755ff" fill-rule="evenodd"/><path d="" stroke="none" fill="#4a59ff" fill-rule="evenodd"/><path d="" stroke="none" fill="#4a59ff" fill-rule="evenodd"/><path d="M 22 16.500 C 22 16.775, 22.225 17, 22.500 17 C 22.775 17, 23 16.775, 23 16.500 C 23 16.225, 22.775 16, 22.500 16 C 22.225 16, 22 16.225, 22 16.500 M 37 16.500 C 37 16.775, 37.225 17, 37.500 17 C 37.775 17, 38 16.775, 38 16.500 C 38 16.225, 37.775 16, 37.500 16 C 37.225 16, 37 16.225, 37 16.500" stroke="none" fill="#4b58ff" fill-rule="evenodd"/><path d="M 28.813 13.683 C 29.534 13.972, 30.397 13.936, 30.729 13.604 C 31.061 13.272, 30.471 13.036, 29.417 13.079 C 28.252 13.127, 28.015 13.364, 28.813 13.683" stroke="none" fill="#3c5dff" fill-rule="evenodd"/><path d="M 28 8.500 C 28 8.775, 28.225 9, 28.500 9 C 28.775 9, 29 8.775, 29 8.500 C 29 8.225, 28.775 8, 28.500 8 C 28.225 8, 28 8.225, 28 8.500 M 31 8.500 C 31 8.775, 31.225 9, 31.500 9 C 31.775 9, 32 8.775, 32 8.500 C 32 8.225, 31.775 8, 31.500 8 C 31.225 8, 31 8.225, 31 8.500" stroke="none" fill="#78a8ff" fill-rule="evenodd"/><path d="" stroke="none" fill="#69a1ff" fill-rule="evenodd"/><path d="M 27.603 6.833 C 27.320 7.292, 28.418 7.667, 30.044 7.667 C 31.670 7.667, 33 7.292, 33 6.833 C 33 5.748, 28.274 5.748, 27.603 6.833" stroke="none" fill="#2868ff" fill-rule="evenodd"/><path d="" stroke="none" fill="#3464ff" fill-rule="evenodd"/><path d="M 26.333 11.667 C 26.700 12.033, 27.300 12.033, 27.667 11.667 C 28.033 11.300, 27.733 11, 27 11 C 26.267 11, 25.967 11.300, 26.333 11.667" stroke="none" fill="#3562ff" fill-rule="evenodd"/><path d="M 32 10.500 C 32 10.775, 32.225 11, 32.500 11 C 32.775 11, 33 10.775, 33 10.500 C 33 10.225, 32.775 10, 32.500 10 C 32.225 10, 32 10.225, 32 10.500" stroke="none" fill="#4967ff" fill-rule="evenodd"/><path d="" stroke="none" fill="#536dff" fill-rule="evenodd"/><path d="M 32.333 11.667 C 32.700 12.033, 33.300 12.033, 33.667 11.667 C 34.033 11.300, 33.733 11, 33 11 C 32.267 11, 31.967 11.300, 32.333 11.667" stroke="none" fill="#3560ff" fill-rule="evenodd"/><path d="M 31 13.500 C 31 13.775, 31.225 14, 31.500 14 C 31.775 14, 32 13.775, 32 13.500 C 32 13.225, 31.775 13, 31.500 13 C 31.225 13, 31 13.225, 31 13.500" stroke="none" fill="#4060ff" fill-rule="evenodd"/><path d="" stroke="none" fill="#465dff" fill-rule="evenodd"/><path d="" stroke="none" fill="#000000" fill-rule="evenodd"/><path d="M 39 15.500 C 39 15.775, 39.225 16, 39.500 16 C 39.775 16, 40 15.775, 40 15.500 C 40 15.225, 39.775 15, 39.500 15 C 39.225 15, 39 15.225, 39 15.500" stroke="none" fill="#4755ff" fill-rule="evenodd"/><path d="M 21 16.500 C 21 16.775, 21.225 17, 21.500 17 C 21.775 17, 22 16.775, 22 16.500 C 22 16.225, 21.775 16, 21.500 16 C 21.225 16, 21 16.225, 21 16.500 M 41 16.500 C 41 16.775, 41.225 17, 41.500 17 C 41.775 17, 42 16.775, 42 16.500 C 42 16.225, 41.775 16, 41.500 16 C 41.225 16, 41 16.225, 41 16.500" stroke="none" fill="#4d58ff" fill-rule="evenodd"/><path d="M 20 16.500 C 20 16.775, 20.225 17, 20.500 17 C 20.775 17, 21 16.775, 21 16.500 C 21 16.225, 20.775 16, 20.500 16 C 20.225 16, 20 16.225, 20 16.500 M 24.750 16.706 C 25.988 16.944, 28.012 16.944, 29.250 16.706 C 30.488 16.467, 29.475 16.272, 27 16.272 C 24.525 16.272, 23.512 16.467, 24.750 16.706 M 38.813 16.683 C 39.534 16.972, 40.397 16.936, 40.729 16.604 C 41.061 16.272, 40.471 16.036, 39.417 16.079 C 38.252 16.127, 38.015 16.364, 38.813 16.683" stroke="none" fill="#4c58ff" fill-rule="evenodd"/><path d="" stroke="none" fill="#000000" fill-rule="evenodd"/><path d="" stroke="none" fill="#778cff" fill-rule="evenodd"/><path d="M 28.750 9.662 C 29.438 9.940, 30.563 9.940, 31.250 9.662 C 31.938 9.385, 31.375 9.158, 30 9.158 C 28.625 9.158, 28.063 9.385, 28.750 9.662" stroke="none" fill="#a1baff" fill-rule="evenodd"/><path d="" stroke="none" fill="#68a1ff" fill-rule="evenodd"/><path d="M 27 9.500 C 27 9.775, 27.225 10, 27.500 10 C 27.775 10, 28 9.775, 28 9.500 C 28 9.225, 27.775 9, 27.500 9 C 27.225 9, 27 9.225, 27 9.500 M 32 9.500 C 32 9.775, 32.225 10, 32.500 10 C 32.775 10, 33 9.775, 33 9.500 C 33 9.225, 32.775 9, 32.500 9 C 32.225 9, 32 9.225, 32 9.500" stroke="none" fill="#3c79ff" fill-rule="evenodd"/><path d="M 27 9.500 C 27 9.775, 27.225 10, 27.500 10 C 27.775 10, 28 9.775, 28 9.500 C 28 9.225, 27.775 9, 27.500 9 C 27.225 9, 27 9.225, 27 9.500 M 32 9.500 C 32 9.775, 32.225 10, 32.500 10 C 32.775 10, 33 9.775, 33 9.500 C 33 9.225, 32.775 9, 32.500 9 C 32.225 9, 32 9.225, 32 9.500" stroke="none" fill="#3c79ff" fill-rule="evenodd"/><path d="M 27 9.500 C 27 9.775, 27.225 10, 27.500 10 C 27.775 10, 28 9.775, 28 9.500 C 28 9.225, 27.775 9, 27.500 9 C 27.225 9, 27 9.225, 27 9.500 M 32 9.500 C 32 9.775, 32.225 10, 32.500 10 C 32.775 10, 33 9.775, 33 9.500 C 33 9.225, 32.775 9, 32.500 9 C 32.225 9, 32 9.225, 32 9.500" stroke="none" fill="#3c79ff" fill-rule="evenodd"/><path d="" stroke="none" fill="#0000ff" fill-rule="evenodd"/><path d="" stroke="none" fill="#000000" fill-rule="evenodd"/><path d="" stroke="none" fill="#000000" fill-rule="evenodd"/><path d="" stroke="none" fill="#4b59ff" fill-rule="evenodd"/><path d="M 21 16.500 C 21 16.775, 21.225 17, 21.500 17 C 21.775 17, 22 16.775, 22 16.500 C 22 16.225, 21.775 16, 21.500 16 C 21.225 16, 21 16.225, 21 16.500 M 41 16.500 C 41 16.775, 41.225 17, 41.500 17 C 41.775 17, 42 16.775, 42 16.500 C 42 16.225, 41.775 16, 41.500 16 C 41.225 16, 41 16.225, 41 16.500" stroke="none" fill="#4d58ff" fill-rule="evenodd"/><path d="M 21.750 17.706 C 22.988 17.944, 25.012 17.944, 26.250 17.706 C 27.488 17.467, 26.475 17.272, 24 17.272 C 21.525 17.272, 20.512 17.467, 21.750 17.706 M 30.813 17.683 C 31.534 17.972, 32.397 17.936, 32.729 17.604 C 33.061 17.272, 32.471 17.036, 31.417 17.079 C 30.252 17.127, 30.015 17.364, 30.813 17.683 M 37.762 17.707 C 39.006 17.946, 40.806 17.937, 41.762 17.687 C 42.718 17.437, 41.700 17.241, 39.500 17.252 C 37.300 17.263, 36.518 17.468, 37.762 17.707" stroke="none" fill="#5057ff" fill-rule="evenodd"/><path d="M 17.750 18.662 C 18.438 18.940, 19.563 18.940, 20.250 18.662 C 20.938 18.385, 20.375 18.158, 19 18.158 C 17.625 18.158, 17.063 18.385, 17.750 18.662 M 25.333 18.667 C 25.700 19.033, 26.300 19.033, 26.667 18.667 C 27.033 18.300, 26.733 18, 26 18 C 25.267 18, 24.967 18.300, 25.333 18.667 M 32.762 18.707 C 34.006 18.946, 35.806 18.937, 36.762 18.687 C 37.718 18.437, 36.700 18.241, 34.500 18.252 C 32.300 18.263, 31.518 18.468, 32.762 18.707 M 41.333 18.667 C 41.700 19.033, 42.300 19.033, 42.667 18.667 C 43.033 18.300, 42.733 18, 42 18 C 41.267 18, 40.967 18.300, 41.333 18.667" stroke="none" fill="#5555ff" fill-rule="evenodd"/><path d="" stroke="none" fill="#6060ff" fill-rule="evenodd"/><path d="M 26 21.500 C 26 21.775, 26.225 22, 26.500 22 C 26.775 22, 27 21.775, 27 21.500 C 27 21.225, 26.775 21, 26.500 21 C 26.225 21, 26 21.225, 26 21.500" stroke="none" fill="#624dff" fill-rule="evenodd"/><path d="M 14 23.500 C 14 23.775, 14.225 24, 14.500 24 C 14.775 24, 15 23.775, 15 23.500 C 15 23.225, 14.775 23, 14.500 23 C 14.225 23, 14 23.225, 14 23.500 M 21 23.500 C 21 23.775, 21.225 24, 21.500 24 C 21.775 24, 22 23.775, 22 23.500 C 22 23.225, 21.775 23, 21.500 23 C 21.225 23, 21 23.225, 21 23.500" stroke="none" fill="#6b4cff" fill-rule="evenodd"/><path d="M 14.333 25.667 C 14.700 26.033, 15.300 26.033, 15.667 25.667 C 16.033 25.300, 15.733 25, 15 25 C 14.267 25, 13.967 25.300, 14.333 25.667 M 19.333 25.667 C 19.700 26.033, 20.300 26.033, 20.667 25.667 C 21.033 25.300, 20.733 25, 20 25 C 19.267 25, 18.967 25.300, 19.333 25.667 M 24.333 25.667 C 24.700 26.033, 25.300 26.033, 25.667 25.667 C 26.033 25.300, 25.733 25, 25 25 C 24.267 25, 23.967 25.300, 24.333 25.667 M 29 25.500 C 29 25.775, 29.225 26, 29.500 26 C 29.775 26, 30 25.775, 30 25.500 C 30 25.225, 29.775 25, 29.500 25 C 29.225 25, 29 25.225, 29 25.500" stroke="none" fill="#7247ff" fill-rule="evenodd"/><path d="M 14.333 27.667 C 14.700 28.033, 15.300 28.033, 15.667 27.667 C 16.033 27.300, 15.733 27, 15 27 C 14.267 27, 13.967 27.300, 14.333 27.667 M 18.333 27.667 C 18.700 28.033, 19.300 28.033, 19.667 27.667 C 20.033 27.300, 19.733 27, 19 27 C 18.267 27, 17.967 27.300, 18.333 27.667 M 24 27.500 C 24 27.775, 24.225 28, 24.500 28 C 24.775 28, 25 27.775, 25 27.500 C 25 27.225, 24.775 27, 24.500 27 C 24.225 27, 24 27.225, 24 27.500 M 28.333 27.667 C 28.700 28.033, 29.300 28.033, 29.667 27.667 C 30.033 27.300, 29.733 27, 29 27 C 28.267 27, 27.967 27.300, 28.333 27.667 M 22 28.500 C 22 28.775, 22.225 29, 22.500 29 C 22.775 29, 23 28.775, 23 28.500 C 23 28.225, 22.775 28, 22.500 28 C 22.225 28, 22 28.225, 22 28.500" stroke="none" fill="#7b43ff" fill-rule="evenodd"/><path d="M 26.269 15.693 C 27.242 15.947, 28.592 15.930, 29.269 15.656 C 29.946 15.382, 29.150 15.175, 27.500 15.195 C 25.850 15.215, 25.296 15.439, 26.269 15.693" stroke="none" fill="#475aff" fill-rule="evenodd"/><path d="M 19 22.500 C 19 22.775, 19.225 23, 19.500 23 C 19.775 23, 20 22.775, 20 22.500 C 20 22.225, 19.775 22, 19.500 22 C 19.225 22, 19 22.225, 19 22.500" stroke="none" fill="#664cff" fill-rule="evenodd"/><path d="M 26.269 15.693 C 27.242 15.947, 28.592 15.930, 29.269 15.656 C 29.946 15.382, 29.150 15.175, 27.500 15.195 C 25.850 15.215, 25.296 15.439, 26.269 15.693" stroke="none" fill="#475aff" fill-rule="evenodd"/><path d="M 24 15.500 C 24 15.775, 24.225 16, 24.500 16 C 24.775 16, 25 15.775, 25 15.500 C 25 15.225, 24.775 15, 24.500 15 C 24.225 15, 24 15.225, 24 15.500 M 30 15.500 C 30 15.775, 30.225 16, 30.500 16 C 30.775 16, 31 15.775, 31 15.500 C 31 15.225, 30.775 15, 30.500 15 C 30.225 15, 30 15.225, 30 15.500" stroke="none" fill="#465bff" fill-rule="evenodd"/><path d="M 28.800 11.200 C 29.733 12.133, 30.267 12.133, 31.200 11.200 C 32.133 10.267, 31.867 10, 30 10 C 28.133 10, 27.867 10.267, 28.800 11.200" stroke="none" fill="#b2b7ff" fill-rule="evenodd"/><path d="" stroke="none" fill="#5a97ff" fill-rule="evenodd"/><path d="M 27 8.500 C 27 8.775, 27.225 9, 27.500 9 C 27.775 9, 28 8.775, 28 8.500 C 28 8.225, 27.775 8, 27.500 8 C 27.225 8, 27 8.225, 27 8.500 M 32.333 8.667 C 32.700 9.033, 33.300 9.033, 33.667 8.667 C 34.033 8.300, 33.733 8, 33 8 C 32.267 8, 31.967 8.300, 32.333 8.667" stroke="none" fill="#2b67ff" fill-rule="evenodd"/><path d="M 26 9.500 C 26 9.775, 26.225 10, 26.500 10 C 26.775 10, 27 9.775, 27 9.500 C 27 9.225, 26.775 9, 26.500 9 C 26.225 9, 26 9.225, 26 9.500" stroke="none" fill="#3064ff" fill-rule="evenodd"/><path d="" stroke="none" fill="#3862ff" fill-rule="evenodd"/><path d="" stroke="none" fill="#3d5fff" fill-rule="evenodd"/><path d="" stroke="none" fill="#3a5eff" fill-rule="evenodd"/><path d="" stroke="none" fill="#4a59ff" fill-rule="evenodd"/><path d="" stroke="none" fill="#5b5bff" fill-rule="evenodd"/><path d="" stroke="none" fill="#000000" fill-rule="evenodd"/><path d="" stroke="none" fill="#5853ff" fill-rule="evenodd"/><path d="M 16.333 19.667 C 16.700 20.033, 17.300 20.033, 17.667 19.667 C 18.033 19.300, 17.733 19, 17 19 C 16.267 19, 15.967 19.300, 16.333 19.667 M 25.333 19.667 C 25.700 20.033, 26.300 20.033, 26.667 19.667 C 27.033 19.300, 26.733 19, 26 19 C 25.267 19, 24.967 19.300, 25.333 19.667 M 33.269 19.693 C 34.242 19.947, 35.592 19.930, 36.269 19.656 C 36.946 19.382, 36.150 19.175, 34.500 19.195 C 32.850 19.215, 32.296 19.439, 33.269 19.693 M 41 19.500 C 41 19.775, 41.225 20, 41.500 20 C 41.775 20, 42 19.775, 42 19.500 C 42 19.225, 41.775 19, 41.500 19 C 41.225 19, 41 19.225, 41 19.500" stroke="none" fill="#5852ff" fill-rule="evenodd"/><path d="" stroke="none" fill="#525aff" fill-rule="evenodd"/><path d="" stroke="none" fill="#000000" fill-rule="evenodd"/><path d="M 18 19.500 C 18 19.775, 18.225 20, 18.500 20 C 18.775 20, 19 19.775, 19 19.500 C 19 19.225, 18.775 19, 18.500 19 C 18.225 19, 18 19.225, 18 19.500" stroke="none" fill="#5850ff" fill-rule="evenodd"/><path d="M 24 29.500 C 24 29.775, 24.225 30, 24.500 30 C 24.775 30, 25 29.775, 25 29.500 C 25 29.225, 24.775 29, 24.500 29 C 24.225 29, 24 29.225, 24 29.500" stroke="none" fill="#8040ff" fill-rule="evenodd"/><path d="M 20 24.500 C 20 24.775, 20.225 25, 20.500 25 C 20.775 25, 21 24.775, 21 24.500 C 21 24.225, 20.775 24, 20.500 24 C 20.225 24, 20 24.225, 20 24.500 M 30.333 24.667 C 30.700 25.033, 31.300 25.033, 31.667 24.667 C 32.033 24.300, 31.733 24, 31 24 C 30.267 24, 29.967 24.300, 30.333 24.667" stroke="none" fill="#6d49ff" fill-rule="evenodd"/><path d="M 28 24.500 C 28 24.775, 28.225 25, 28.500 25 C 28.775 25, 29 24.775, 29 24.500 C 29 24.225, 28.775 24, 28.500 24 C 28.225 24, 28 24.225, 28 24.500" stroke="none" fill="#6c49ff" fill-rule="evenodd"/><path d="M 22.333 22.667 C 22.700 23.033, 23.300 23.033, 23.667 22.667 C 24.033 22.300, 23.733 22, 23 22 C 22.267 22, 21.967 22.300, 22.333 22.667 M 29 22.500 C 29 22.775, 29.225 23, 29.500 23 C 29.775 23, 30 22.775, 30 22.500 C 30 22.225, 29.775 22, 29.500 22 C 29.225 22, 29 22.225, 29 22.500" stroke="none" fill="#664dff" fill-rule="evenodd"/><path d="M 23 27.500 C 23 27.775, 23.225 28, 23.500 28 C 23.775 28, 24 27.775, 24 27.500 C 24 27.225, 23.775 27, 23.500 27 C 23.225 27, 23 27.225, 23 27.500" stroke="none" fill="#7a44ff" fill-rule="evenodd"/><path d="M 23 27.500 C 23 27.775, 23.225 28, 23.500 28 C 23.775 28, 24 27.775, 24 27.500 C 24 27.225, 23.775 27, 23.500 27 C 23.225 27, 23 27.225, 23 27.500" stroke="none" fill="#7a44ff" fill-rule="evenodd"/><path d="M 17.750 18.662 C 18.438 18.940, 19.563 18.940, 20.250 18.662 C 20.938 18.385, 20.375 18.158, 19 18.158 C 17.625 18.158, 17.063 18.385, 17.750 18.662 M 25.333 18.667 C 25.700 19.033, 26.300 19.033, 26.667 18.667 C 27.033 18.300, 26.733 18, 26 18 C 25.267 18, 24.967 18.300, 25.333 18.667 M 32.762 18.707 C 34.006 18.946, 35.806 18.937, 36.762 18.687 C 37.718 18.437, 36.700 18.241, 34.500 18.252 C 32.300 18.263, 31.518 18.468, 32.762 18.707 M 41.333 18.667 C 41.700 19.033, 42.300 19.033, 42.667 18.667 C 43.033 18.300, 42.733 18, 42 18 C 41.267 18, 40.967 18.300, 41.333 18.667" stroke="none" fill="#5555ff" fill-rule="evenodd"/><path d="M 20 36.500 C 20 36.775, 20.225 37, 20.500 37 C 20.775 37, 21 36.775, 21 36.500 C 21 36.225, 20.775 36, 20.500 36 C 20.225 36, 20 36.225, 20 36.500 M 33 36.500 C 33 36.775, 33.225 37, 33.500 37 C 33.775 37, 34 36.775, 34 36.500 C 34 36.225, 33.775 36, 33.500 36 C 33.225 36, 33 36.225, 33 36.500 M 38 36.500 C 38 36.775, 38.225 37, 38.500 37 C 38.775 37, 39 36.775, 39 36.500 C 39 36.225, 38.775 36, 38.500 36 C 38.225 36, 38 36.225, 38 36.500" stroke="none" fill="#a134ff" fill-rule="evenodd"/><path d="M 38 40.500 C 38 40.775, 38.225 41, 38.500 41 C 38.775 41, 39 40.775, 39 40.500 C 39 40.225, 38.775 40, 38.500 40 C 38.225 40, 38 40.225, 38 40.500" stroke="none" fill="#b02cff" fill-rule="evenodd"/><path d="M 16 38.500 C 16 38.775, 16.225 39, 16.500 39 C 16.775 39, 17 38.775, 17 38.500 C 17 38.225, 16.775 38, 16.500 38 C 16.225 38, 16 38.225, 16 38.500 M 18 38.500 C 18 38.775, 18.225 39, 18.500 39 C 18.775 39, 19 38.775, 19 38.500 C 19 38.225, 18.775 38, 18.500 38 C 18.225 38, 18 38.225, 18 38.500 M 33 38.500 C 33 38.775, 33.225 39, 33.500 39 C 33.775 39, 34 38.775, 34 38.500 C 34 38.225, 33.775 38, 33.500 38 C 33.225 38, 33 38.225, 33 38.500 M 37.333 38.667 C 37.700 39.033, 38.300 39.033, 38.667 38.667 C 39.033 38.300, 38.733 38, 38 38 C 37.267 38, 36.967 38.300, 37.333 38.667" stroke="none" fill="#aa2fff" fill-rule="evenodd"/><path d="M 10 35.500 C 10 35.775, 10.225 36, 10.500 36 C 10.775 36, 11 35.775, 11 35.500 C 11 35.225, 10.775 35, 10.500 35 C 10.225 35, 10 35.225, 10 35.500" stroke="none" fill="#9b35ff" fill-rule="evenodd"/><path d="M 18 32.500 C 18 32.775, 18.225 33, 18.500 33 C 18.775 33, 19 32.775, 19 32.500 C 19 32.225, 18.775 32, 18.500 32 C 18.225 32, 18 32.225, 18 32.500" stroke="none" fill="#923aff" fill-rule="evenodd"/><path d="" stroke="none" fill="#8140ff" fill-rule="evenodd"/><path d="M 16 29.500 C 16 29.775, 16.225 30, 16.500 30 C 16.775 30, 17 29.775, 17 29.500 C 17 29.225, 16.775 29, 16.500 29 C 16.225 29, 16 29.225, 16 29.500 M 30 29.500 C 30 29.775, 30.225 30, 30.500 30 C 30.775 30, 31 29.775, 31 29.500 C 31 29.225, 30.775 29, 30.500 29 C 30.225 29, 30 29.225, 30 29.500" stroke="none" fill="#833fff" fill-rule="evenodd"/><path d="M 16 29.500 C 16 29.775, 16.225 30, 16.500 30 C 16.775 30, 17 29.775, 17 29.500 C 17 29.225, 16.775 29, 16.500 29 C 16.225 29, 16 29.225, 16 29.500 M 30 29.500 C 30 29.775, 30.225 30, 30.500 30 C 30.775 30, 31 29.775, 31 29.500 C 31 29.225, 30.775 29, 30.500 29 C 30.225 29, 30 29.225, 30 29.500" stroke="none" fill="#833fff" fill-rule="evenodd"/><path d="M 10 35.500 C 10 35.775, 10.225 36, 10.500 36 C 10.775 36, 11 35.775, 11 35.500 C 11 35.225, 10.775 35, 10.500 35 C 10.225 35, 10 35.225, 10 35.500" stroke="none" fill="#9b35ff" fill-rule="evenodd"/><path d="" stroke="none" fill="#a139ff" fill-rule="evenodd"/><path d="" stroke="none" fill="#aa33ff" fill-rule="evenodd"/><path d="" stroke="none" fill="#bf20ff" fill-rule="evenodd"/><path d="M 37 43.500 C 37 43.775, 37.225 44, 37.500 44 C 37.775 44, 38 43.775, 38 43.500 C 38 43.225, 37.775 43, 37.500 43 C 37.225 43, 37 43.225, 37 43.500 M 35 44.500 C 35 44.775, 35.225 45, 35.500 45 C 35.775 45, 36 44.775, 36 44.500 C 36 44.225, 35.775 44, 35.500 44 C 35.225 44, 35 44.225, 35 44.500 M 39 44.500 C 39 44.775, 39.225 45, 39.500 45 C 39.775 45, 40 44.775, 40 44.500 C 40 44.225, 39.775 44, 39.500 44 C 39.225 44, 39 44.225, 39 44.500" stroke="none" fill="#bf23ff" fill-rule="evenodd"/><path d="M 35.921 44.321 C 36.606 45.006, 37.675 44.989, 39.217 44.268 C 41.352 43.270, 41.287 43.204, 38.204 43.254 C 35.976 43.290, 35.236 43.636, 35.921 44.321" stroke="none" fill="#c226ff" fill-rule="evenodd"/><path d="M 33.500 41 C 33.840 41.550, 34.541 42, 35.059 42 C 35.577 42, 36 41.550, 36 41 C 36 40.450, 35.298 40, 34.441 40 C 33.584 40, 33.160 40.450, 33.500 41 M 39 41 C 39 41.550, 39.450 42, 40 42 C 40.550 42, 41 41.550, 41 41 C 41 40.450, 40.550 40, 40 40 C 39.450 40, 39 40.450, 39 41" stroke="none" fill="#b42aff" fill-rule="evenodd"/><path d="M 10.762 36.707 C 12.006 36.946, 13.806 36.937, 14.762 36.687 C 15.718 36.437, 14.700 36.241, 12.500 36.252 C 10.300 36.263, 9.518 36.468, 10.762 36.707 M 21.813 36.683 C 22.534 36.972, 23.397 36.936, 23.729 36.604 C 24.061 36.272, 23.471 36.036, 22.417 36.079 C 21.252 36.127, 21.015 36.364, 21.813 36.683 M 32 36.500 C 32 36.775, 32.225 37, 32.500 37 C 32.775 37, 33 36.775, 33 36.500 C 33 36.225, 32.775 36, 32.500 36 C 32.225 36, 32 36.225, 32 36.500 M 37 36.500 C 37 36.775, 37.225 37, 37.500 37 C 37.775 37, 38 36.775, 38 36.500 C 38 36.225, 37.775 36, 37.500 36 C 37.225 36, 37 36.225, 37 36.500" stroke="none" fill="#a233ff" fill-rule="evenodd"/><path d="M 8.333 35.667 C 8.700 36.033, 9.300 36.033, 9.667 35.667 C 10.033 35.300, 9.733 35, 9 35 C 8.267 35, 7.967 35.300, 8.333 35.667 M 23.333 35.667 C 23.700 36.033, 24.300 36.033, 24.667 35.667 C 25.033 35.300, 24.733 35, 24 35 C 23.267 35, 22.967 35.300, 23.333 35.667 M 32.333 35.667 C 32.700 36.033, 33.300 36.033, 33.667 35.667 C 34.033 35.300, 33.733 35, 33 35 C 32.267 35, 31.967 35.300, 32.333 35.667 M 36.333 35.667 C 36.700 36.033, 37.300 36.033, 37.667 35.667 C 38.033 35.300, 37.733 35, 37 35 C 36.267 35, 35.967 35.300, 36.333 35.667" stroke="none" fill="#9e35ff" fill-rule="evenodd"/><path d="M 22.333 29.667 C 22.700 30.033, 23.300 30.033, 23.667 29.667 C 24.033 29.300, 23.733 29, 23 29 C 22.267 29, 21.967 29.300, 22.333 29.667 M 28.333 29.667 C 28.700 30.033, 29.300 30.033, 29.667 29.667 C 30.033 29.300, 29.733 29, 29 29 C 28.267 29, 27.967 29.300, 28.333 29.667 M 31.813 29.683 C 32.534 29.972, 33.397 29.936, 33.729 29.604 C 34.061 29.272, 33.471 29.036, 32.417 29.079 C 31.252 29.127, 31.015 29.364, 31.813 29.683" stroke="none" fill="#8340ff" fill-rule="evenodd"/><path d="M 24 28.500 C 24 28.775, 24.225 29, 24.500 29 C 24.775 29, 25 28.775, 25 28.500 C 25 28.225, 24.775 28, 24.500 28 C 24.225 28, 24 28.225, 24 28.500" stroke="none" fill="#8041ff" fill-rule="evenodd"/><path d="" stroke="none" fill="#9224ff" fill-rule="evenodd"/><path d="" stroke="none" fill="#ff00ff" fill-rule="evenodd"/><path d="" stroke="none" fill="#000000" fill-rule="evenodd"/><path d="" stroke="none" fill="#000000" fill-rule="evenodd"/><path d="" stroke="none" fill="#8e39ff" fill-rule="evenodd"/><path d="M 17 32.500 C 17 32.775, 17.225 33, 17.500 33 C 17.775 33, 18 32.775, 18 32.500 C 18 32.225, 17.775 32, 17.500 32 C 17.225 32, 17 32.225, 17 32.500" stroke="none" fill="#8f3aff" fill-rule="evenodd"/><path d="M 31 11.500 C 31 11.775, 31.225 12, 31.500 12 C 31.775 12, 32 11.775, 32 11.500 C 32 11.225, 31.775 11, 31.500 11 C 31.225 11, 31 11.225, 31 11.500" stroke="none" fill="#8080ff" fill-rule="evenodd"/><path d="M 16.333 27.667 C 16.700 28.033, 17.300 28.033, 17.667 27.667 C 18.033 27.300, 17.733 27, 17 27 C 16.267 27, 15.967 27.300, 16.333 27.667" stroke="none" fill="#7b42ff" fill-rule="evenodd"/><path d="" stroke="none" fill="#000000" fill-rule="evenodd"/><path d="M 24 22.500 C 24 22.775, 24.225 23, 24.500 23 C 24.775 23, 25 22.775, 25 22.500 C 25 22.225, 24.775 22, 24.500 22 C 24.225 22, 24 22.225, 24 22.500" stroke="none" fill="#644dff" fill-rule="evenodd"/><path d="" stroke="none" fill="#5a53ff" fill-rule="evenodd"/><path d="M 15 20.500 C 15 20.775, 15.225 21, 15.500 21 C 15.775 21, 16 20.775, 16 20.500 C 16 20.225, 15.775 20, 15.500 20 C 15.225 20, 15 20.225, 15 20.500 M 33.333 20.667 C 33.700 21.033, 34.300 21.033, 34.667 20.667 C 35.033 20.300, 34.733 20, 34 20 C 33.267 20, 32.967 20.300, 33.333 20.667 M 39 20.500 C 39 20.775, 39.225 21, 39.500 21 C 39.775 21, 40 20.775, 40 20.500 C 40 20.225, 39.775 20, 39.500 20 C 39.225 20, 39 20.225, 39 20.500" stroke="none" fill="#5c50ff" fill-rule="evenodd"/><path d="" stroke="none" fill="#000000" fill-rule="evenodd"/><path d="M 15 23.500 C 15 23.775, 15.225 24, 15.500 24 C 15.775 24, 16 23.775, 16 23.500 C 16 23.225, 15.775 23, 15.500 23 C 15.225 23, 15 23.225, 15 23.500 M 20 23.500 C 20 23.775, 20.225 24, 20.500 24 C 20.775 24, 21 23.775, 21 23.500 C 21 23.225, 20.775 23, 20.500 23 C 20.225 23, 20 23.225, 20 23.500 M 24.333 23.667 C 24.700 24.033, 25.300 24.033, 25.667 23.667 C 26.033 23.300, 25.733 23, 25 23 C 24.267 23, 23.967 23.300, 24.333 23.667 M 31.264 23.718 C 32.784 23.947, 35.034 23.941, 36.264 23.704 C 37.494 23.467, 36.250 23.279, 33.500 23.286 C 30.750 23.294, 29.744 23.488, 31.264 23.718" stroke="none" fill="#694bff" fill-rule="evenodd"/><path d="M 26 21.500 C 26 21.775, 26.225 22, 26.500 22 C 26.775 22, 27 21.775, 27 21.500 C 27 21.225, 26.775 21, 26.500 21 C 26.225 21, 26 21.225, 26 21.500" stroke="none" fill="#624dff" fill-rule="evenodd"/><path d="" stroke="none" fill="#000000" fill-rule="evenodd"/><path d="M 31 16.500 C 31 16.775, 31.225 17, 31.500 17 C 31.775 17, 32 16.775, 32 16.500 C 32 16.225, 31.775 16, 31.500 16 C 31.225 16, 31 16.225, 31 16.500" stroke="none" fill="#4c59ff" fill-rule="evenodd"/><path d="M 27 12.500 C 27 12.775, 27.225 13, 27.500 13 C 27.775 13, 28 12.775, 28 12.500 C 28 12.225, 27.775 12, 27.500 12 C 27.225 12, 27 12.225, 27 12.500" stroke="none" fill="#3c5eff" fill-rule="evenodd"/><path d="M 29.333 8.667 C 29.700 9.033, 30.300 9.033, 30.667 8.667 C 31.033 8.300, 30.733 8, 30 8 C 29.267 8, 28.967 8.300, 29.333 8.667" stroke="none" fill="#94beff" fill-rule="evenodd"/><path d="" stroke="none" fill="#5852fc" fill-rule="evenodd"/><path d="M 10 31.500 C 10 31.775, 10.225 32, 10.500 32 C 10.775 32, 11 31.775, 11 31.500 C 11 31.225, 10.775 31, 10.500 31 C 10.225 31, 10 31.225, 10 31.500 M 20.333 31.667 C 20.700 32.033, 21.300 32.033, 21.667 31.667 C 22.033 31.300, 21.733 31, 21 31 C 20.267 31, 19.967 31.300, 20.333 31.667 M 26.333 31.667 C 26.700 32.033, 27.300 32.033, 27.667 31.667 C 28.033 31.300, 27.733 31, 27 31 C 26.267 31, 25.967 31.300, 26.333 31.667 M 33 31.500 C 33 31.775, 33.225 32, 33.500 32 C 33.775 32, 34 31.775, 34 31.500 C 34 31.225, 33.775 31, 33.500 31 C 33.225 31, 33 31.225, 33 31.500 M 35 31.500 C 35 31.775, 35.225 32, 35.500 32 C 35.775 32, 36 31.775, 36 31.500 C 36 31.225, 35.775 31, 35.500 31 C 35.225 31, 35 31.225, 35 31.500" stroke="none" fill="#8c3dfc" fill-rule="evenodd"/></svg>