<svg xmlns="http://www.w3.org/2000/svg" width="260" height="160" viewBox="0 0 260 160" version="1.1"><path d="M 6 121.500 L 6 144 129.500 144 L 253 144 253 121.500 L 253 99 129.500 99 L 6 99 6 121.500 M 7 121.500 L 7 143 129.500 143 L 252 143 252 121.500 L 252 100 129.500 100 L 7 100 7 121.500 M 61.269 104.693 C 62.242 104.947, 63.592 104.930, 64.269 104.656 C 64.946 104.382, 64.150 104.175, 62.500 104.195 C 60.850 104.215, 60.296 104.439, 61.269 104.693 M 161.813 105.683 C 162.534 105.972, 163.397 105.936, 163.729 105.604 C 164.061 105.272, 163.471 105.036, 162.417 105.079 C 161.252 105.127, 161.015 105.364, 161.813 105.683 M 66.392 119 C 66.392 126.425, 66.549 129.463, 66.742 125.750 C 66.934 122.037, 66.934 115.963, 66.742 112.250 C 66.549 108.537, 66.392 111.575, 66.392 119 M 157.755 109.500 C 157.492 110.875, 157.665 112, 158.139 112 C 158.612 112, 159 110.875, 159 109.500 C 159 108.125, 158.827 107, 158.617 107 C 158.406 107, 158.018 108.125, 157.755 109.500 M 166.079 109.750 C 166.026 111.262, 166.574 111.995, 167.750 111.985 C 168.829 111.975, 169.078 111.688, 168.400 111.235 C 167.795 110.831, 167.043 109.825, 166.729 109 C 166.347 107.998, 166.132 108.247, 166.079 109.750 M 49.558 111.907 C 49.249 112.405, 49.898 112.578, 50.999 112.290 C 53.334 111.679, 53.629 111, 51.559 111 C 50.766 111, 49.866 111.408, 49.558 111.907 M 55.813 111.683 C 56.534 111.972, 57.397 111.936, 57.729 111.604 C 58.061 111.272, 57.471 111.036, 56.417 111.079 C 55.252 111.127, 55.015 111.364, 55.813 111.683 M 75.813 111.683 C 76.534 111.972, 77.397 111.936, 77.729 111.604 C 78.061 111.272, 77.471 111.036, 76.417 111.079 C 75.252 111.127, 75.015 111.364, 75.813 111.683 M 80.813 111.683 C 81.534 111.972, 82.397 111.936, 82.729 111.604 C 83.061 111.272, 82.471 111.036, 81.417 111.079 C 80.252 111.127, 80.015 111.364, 80.813 111.683 M 94.269 111.693 C 95.242 111.947, 96.592 111.930, 97.269 111.656 C 97.946 111.382, 97.150 111.175, 95.500 111.195 C 93.850 111.215, 93.296 111.439, 94.269 111.693 M 106 111.706 C 106.825 112.008, 108.625 113.210, 110 114.377 L 112.500 116.500 110.076 113.750 C 108.742 112.237, 106.942 111.036, 106.076 111.079 C 104.726 111.147, 104.716 111.237, 106 111.706 M 120.558 111.907 C 120.249 112.405, 120.898 112.578, 121.999 112.290 C 124.334 111.679, 124.629 111, 122.559 111 C 121.766 111, 120.866 111.408, 120.558 111.907 M 127.813 111.683 C 128.534 111.972, 129.397 111.936, 129.729 111.604 C 130.061 111.272, 129.471 111.036, 128.417 111.079 C 127.252 111.127, 127.015 111.364, 127.813 111.683 M 142.269 111.693 C 143.242 111.947, 144.592 111.930, 145.269 111.656 C 145.946 111.382, 145.150 111.175, 143.500 111.195 C 141.850 111.215, 141.296 111.439, 142.269 111.693 M 180.813 111.683 C 181.534 111.972, 182.397 111.936, 182.729 111.604 C 183.061 111.272, 182.471 111.036, 181.417 111.079 C 180.252 111.127, 180.015 111.364, 180.813 111.683 M 185.813 111.683 C 186.534 111.972, 187.397 111.936, 187.729 111.604 C 188.061 111.272, 187.471 111.036, 186.417 111.079 C 185.252 111.127, 185.015 111.364, 185.813 111.683 M 201.813 111.683 C 202.534 111.972, 203.397 111.936, 203.729 111.604 C 204.061 111.272, 203.471 111.036, 202.417 111.079 C 201.252 111.127, 201.015 111.364, 201.813 111.683 M 208.813 111.683 C 209.534 111.972, 210.397 111.936, 210.729 111.604 C 211.061 111.272, 210.471 111.036, 209.417 111.079 C 208.252 111.127, 208.015 111.364, 208.813 111.683 M 70.924 114.750 L 68.500 117.500 71.250 115.076 C 73.820 112.810, 74.459 112, 73.674 112 C 73.495 112, 72.258 113.237, 70.924 114.750 M 86.404 114.680 C 87.451 115.932, 88.637 118.654, 89.039 120.728 L 89.770 124.500 89.885 121.266 C 89.966 118.985, 89.190 117.202, 87.250 115.218 C 85.737 113.670, 85.357 113.428, 86.404 114.680 M 133 114.500 C 134.292 115.875, 135.574 117, 135.849 117 C 136.124 117, 135.292 115.875, 134 114.500 C 132.708 113.125, 131.426 112, 131.151 112 C 130.876 112, 131.708 113.125, 133 114.500 M 175.577 114.920 C 174.039 116.525, 173.019 118.438, 173.311 119.170 C 173.725 120.207, 173.860 120.181, 173.921 119.055 C 173.964 118.260, 175.209 116.347, 176.687 114.805 C 178.165 113.262, 179.149 112, 178.874 112 C 178.599 112, 177.115 113.314, 175.577 114.920 M 189 112.378 C 189 112.585, 189.787 113.373, 190.750 114.128 C 192.336 115.371, 192.371 115.336, 191.128 113.750 C 189.821 112.084, 189 111.555, 189 112.378 M 91.389 125.500 C 91.390 132.650, 91.550 135.444, 91.742 131.708 C 91.935 127.973, 91.934 122.123, 91.739 118.708 C 91.545 115.294, 91.387 118.350, 91.389 125.500 M 154 115 C 154 116.100, 154.450 117, 155 117 C 155.550 117, 156 116.100, 156 115 C 156 113.900, 155.550 113, 155 113 C 154.450 113, 154 113.900, 154 115 M 170.158 115 C 170.158 116.375, 170.385 116.938, 170.662 116.250 C 170.940 115.563, 170.940 114.438, 170.662 113.750 C 170.385 113.063, 170.158 113.625, 170.158 115 M 45.557 116.223 C 44.694 117.455, 44.060 120.240, 44.134 122.473 L 44.267 126.500 44.917 121.863 C 45.274 119.313, 46.169 116.501, 46.906 115.613 C 47.642 114.726, 47.990 114, 47.679 114 C 47.368 114, 46.413 115, 45.557 116.223 M 196.607 115.582 C 195.771 117.761, 195.846 120.788, 196.750 121.341 C 197.162 121.594, 197.522 120.045, 197.549 117.900 C 197.603 113.566, 197.489 113.285, 196.607 115.582 M 214.731 116.080 C 215.085 117.432, 215.538 117.886, 215.788 117.137 C 216.028 116.415, 215.750 115.350, 215.168 114.768 C 214.426 114.026, 214.296 114.417, 214.731 116.080 M 115.624 116.539 C 114.659 119.053, 114.943 119.702, 116.122 117.675 C 116.706 116.671, 116.973 115.639, 116.715 115.382 C 116.458 115.124, 115.966 115.645, 115.624 116.539 M 205 118 C 206.939 119.253, 208 119.253, 208 118 C 208 117.450, 206.988 117.007, 205.750 117.015 C 203.931 117.028, 203.787 117.216, 205 118 M 53.015 119.750 C 53.028 121.151, 53.207 121.221, 53.914 120.104 C 54.400 119.337, 55.519 118.985, 56.399 119.323 C 57.280 119.661, 58 119.501, 58 118.969 C 58 118.436, 56.875 118, 55.500 118 C 53.780 118, 53.005 118.546, 53.015 119.750 M 68.158 120 C 68.158 121.375, 68.385 121.938, 68.662 121.250 C 68.940 120.563, 68.940 119.438, 68.662 118.750 C 68.385 118.063, 68.158 118.625, 68.158 120 M 77.750 118.662 C 78.438 118.940, 79.563 118.940, 80.250 118.662 C 80.938 118.385, 80.375 118.158, 79 118.158 C 77.625 118.158, 77.063 118.385, 77.750 118.662 M 99.607 119.582 C 99.273 120.452, 99.045 121.914, 99.100 122.832 C 99.156 123.775, 99.501 123.416, 99.894 122.005 C 100.275 120.633, 101.355 119.363, 102.294 119.182 C 103.653 118.920, 104 119.603, 104 122.543 C 104 125.824, 103.762 126.171, 101.856 125.673 C 100.325 125.272, 100.020 125.420, 100.789 126.189 C 102.907 128.307, 105 126.241, 105 122.031 C 105 118.446, 104.735 118, 102.607 118 C 101.291 118, 99.941 118.712, 99.607 119.582 M 123.421 119.345 C 123.107 120.163, 122.997 122.107, 123.175 123.666 C 123.435 125.936, 123.998 126.500, 126 126.500 C 128.250 126.500, 128.500 126.100, 128.500 122.500 C 128.500 119.111, 128.156 118.451, 126.246 118.180 C 124.938 117.994, 123.752 118.483, 123.421 119.345 M 157.792 122.750 C 158.281 130.349, 158.759 131.005, 158.884 124.250 C 158.948 120.813, 158.659 118, 158.243 118 C 157.826 118, 157.623 120.138, 157.792 122.750 M 166 121.941 C 166 124.109, 166.423 126.144, 166.941 126.463 C 167.501 126.810, 167.644 125.579, 167.294 123.422 C 166.883 120.893, 167.127 119.533, 168.103 118.915 C 169.222 118.207, 169.152 118.028, 167.750 118.015 C 166.377 118.003, 166 118.848, 166 121.941 M 182.269 118.693 C 183.242 118.947, 184.592 118.930, 185.269 118.656 C 185.946 118.382, 185.150 118.175, 183.500 118.195 C 181.850 118.215, 181.296 118.439, 182.269 118.693 M 113 122.500 C 113 124.657, 113.404 125.869, 114 125.500 C 114.550 125.160, 115 123.810, 115 122.500 C 115 121.190, 114.550 119.840, 114 119.500 C 113.404 119.131, 113 120.343, 113 122.500 M 124 122.573 C 124 125.436, 124.348 126.081, 125.750 125.815 C 126.903 125.597, 127.607 124.377, 127.813 122.242 C 128.075 119.532, 127.788 119, 126.063 119 C 124.364 119, 124 119.630, 124 122.573 M 147.412 120.369 C 147.123 121.122, 147.054 124.160, 147.258 127.119 L 147.630 132.500 147.815 126.333 C 147.930 122.487, 148.470 119.977, 149.250 119.662 C 150.229 119.267, 150.222 119.141, 149.219 119.079 C 148.514 119.036, 147.701 119.616, 147.412 120.369 M 194.195 121.500 C 194.215 123.150, 194.439 123.704, 194.693 122.731 C 194.947 121.758, 194.930 120.408, 194.656 119.731 C 194.382 119.054, 194.175 119.850, 194.195 121.500 M 68.158 125 C 68.158 126.375, 68.385 126.938, 68.662 126.250 C 68.940 125.563, 68.940 124.438, 68.662 123.750 C 68.385 123.063, 68.158 123.625, 68.158 125 M 198.813 123.683 C 199.534 123.972, 200.397 123.936, 200.729 123.604 C 201.061 123.272, 200.471 123.036, 199.417 123.079 C 198.252 123.127, 198.015 123.364, 198.813 123.683 M 53.015 124.781 C 52.993 126.609, 55.915 127.487, 57.317 126.074 C 58.231 125.153, 58.078 125.042, 56.649 125.586 C 55.499 126.024, 54.463 125.763, 53.914 124.896 C 53.254 123.852, 53.027 123.823, 53.015 124.781 M 136.079 125.583 C 136.127 126.748, 136.364 126.985, 136.683 126.188 C 136.972 125.466, 136.936 124.603, 136.604 124.271 C 136.272 123.939, 136.036 124.529, 136.079 125.583 M 215.320 127.750 C 214.284 131.071, 214.313 131.278, 215.575 129.559 C 216.769 127.933, 217.596 124, 216.745 124 C 216.604 124, 215.963 125.688, 215.320 127.750 M 76.500 126 C 76.840 126.550, 77.965 127, 79 127 C 80.035 127, 81.160 126.550, 81.500 126 C 81.862 125.415, 80.824 125, 79 125 C 77.176 125, 76.138 125.415, 76.500 126 M 173.079 126.095 C 173.036 126.972, 174.012 128.547, 175.250 129.595 C 177.481 131.484, 177.486 131.483, 175.880 129.500 C 174.990 128.400, 174.013 126.825, 173.709 126 C 173.241 124.727, 173.146 124.741, 173.079 126.095 M 181.500 126 C 181.840 126.550, 182.965 127, 184 127 C 185.035 127, 186.160 126.550, 186.500 126 C 186.862 125.415, 185.824 125, 184 125 C 182.176 125, 181.138 125.415, 181.500 126 M 204 126 C 204 126.550, 205.238 126.993, 206.750 126.985 C 208.893 126.973, 209.169 126.755, 208 126 C 206.043 124.736, 204 124.736, 204 126 M 115 126.941 C 115 127.459, 115.445 128.157, 115.989 128.493 C 116.555 128.843, 116.723 128.442, 116.382 127.552 C 115.717 125.820, 115 125.503, 115 126.941 M 196.063 127.161 C 195.949 130.170, 201.712 134.002, 206.327 133.985 C 208.622 133.976, 211.101 133.589, 211.835 133.123 C 212.613 132.630, 211.058 132.480, 208.101 132.764 C 202.455 133.307, 198.553 131.522, 197.010 127.692 C 196.374 126.114, 196.109 125.965, 196.063 127.161 M 170.195 129.500 C 170.215 131.150, 170.439 131.704, 170.693 130.731 C 170.947 129.758, 170.930 128.408, 170.656 127.731 C 170.382 127.054, 170.175 127.850, 170.195 129.500 M 71.766 130.886 C 74.297 133.300, 75.924 134, 79 134 C 82.076 134, 83.703 133.300, 86.234 130.886 L 89.500 127.773 86.173 130.386 C 83.897 132.175, 81.632 133, 79 133 C 76.368 133, 74.103 132.175, 71.827 130.386 L 68.500 127.773 71.766 130.886 M 133.872 129.750 C 132.629 131.336, 132.664 131.371, 134.250 130.128 C 135.916 128.821, 136.445 128, 135.622 128 C 135.415 128, 134.627 128.787, 133.872 129.750 M 109.035 131.118 C 107.275 132.582, 105.510 133.068, 102.869 132.816 C 100.834 132.622, 99.382 132.809, 99.643 133.232 C 100.728 134.988, 106.965 133.933, 109.694 131.532 C 113.074 128.558, 112.525 128.214, 109.035 131.118 M 48.861 131.941 C 51.192 133.974, 57.387 134.801, 58.371 133.209 C 58.640 132.774, 57.313 132.599, 55.423 132.819 C 53.335 133.063, 50.908 132.565, 49.243 131.551 L 46.500 129.881 48.861 131.941 M 126 133 L 121.500 133.700 125.500 133.834 C 127.700 133.909, 130.175 133.533, 131 133 C 131.825 132.467, 132.050 132.091, 131.500 132.166 C 130.950 132.240, 128.475 132.615, 126 133 M 179.345 133.235 C 179.980 133.639, 182.075 133.969, 184 133.969 C 185.925 133.969, 188.020 133.639, 188.655 133.235 C 189.289 132.831, 187.195 132.500, 184 132.500 C 180.805 132.500, 178.711 132.831, 179.345 133.235 M 61.269 133.693 C 62.242 133.947, 63.592 133.930, 64.269 133.656 C 64.946 133.382, 64.150 133.175, 62.500 133.195 C 60.850 133.215, 60.296 133.439, 61.269 133.693 M 142.269 133.693 C 143.242 133.947, 144.592 133.930, 145.269 133.656 C 145.946 133.382, 145.150 133.175, 143.500 133.195 C 141.850 133.215, 141.296 133.439, 142.269 133.693 M 164.250 133.689 C 165.213 133.941, 166.787 133.941, 167.750 133.689 C 168.713 133.438, 167.925 133.232, 166 133.232 C 164.075 133.232, 163.287 133.438, 164.250 133.689 M 94.269 139.693 C 95.242 139.947, 96.592 139.930, 97.269 139.656 C 97.946 139.382, 97.150 139.175, 95.500 139.195 C 93.850 139.215, 93.296 139.439, 94.269 139.693" stroke="none" fill="#007dc8" fill-rule="evenodd"/><path d="M 7 121.500 L 7 143 129.500 143 L 252 143 252 121.500 L 252 100 129.500 100 L 7 100 7 121.500 M 59.607 105.582 C 59.273 106.452, 59 108.477, 59 110.082 C 59 111.687, 58.523 113, 57.941 113 C 57.359 113, 57.135 112.590, 57.445 112.089 C 57.755 111.587, 56.250 111.250, 54.100 111.339 C 48.544 111.568, 44 116.388, 44 122.050 C 44 124.819, 44.361 125.895, 45.130 125.420 C 45.807 125.001, 46.080 125.260, 45.812 126.065 C 45.565 126.804, 46.519 128.498, 47.932 129.829 C 49.344 131.160, 49.804 131.856, 48.953 131.375 C 48.102 130.894, 48.264 131.287, 49.314 132.250 C 51.462 134.220, 57.506 134.608, 58.595 132.845 C 59.068 132.082, 58.866 131.965, 58 132.500 C 57.215 132.985, 56.934 132.915, 57.299 132.325 C 57.634 131.784, 59.953 131.456, 62.454 131.598 L 67 131.854 67 118.927 C 67 109.119, 66.698 106.060, 65.750 106.250 C 65.063 106.388, 64.612 105.938, 64.750 105.250 C 65.120 103.402, 60.325 103.711, 59.607 105.582 M 161.813 105.683 C 162.534 105.972, 163.397 105.936, 163.729 105.604 C 164.061 105.272, 163.471 105.036, 162.417 105.079 C 161.252 105.127, 161.015 105.364, 161.813 105.683 M 157.612 110.190 C 157.291 111.796, 156.396 113, 155.525 113 C 154.641 113, 154 113.885, 154 115.107 C 154 116.458, 154.481 117.029, 155.341 116.700 C 156.078 116.417, 157.316 116.587, 158.091 117.077 C 158.866 117.568, 159.050 117.975, 158.500 117.983 C 157.908 117.991, 157.638 120.445, 157.839 124.002 C 158.025 127.305, 158.556 129.775, 159.017 129.489 C 159.478 129.204, 160.129 129.831, 160.463 130.883 C 160.892 132.236, 161.717 132.653, 163.285 132.311 C 165.071 131.920, 165.209 132.034, 164 132.898 C 162.819 133.741, 163.244 133.969, 166 133.969 C 168.625 133.969, 169.125 133.727, 168 133 C 166.667 132.138, 166.667 132.016, 168 131.897 C 168.825 131.823, 169.838 131.816, 170.250 131.882 C 170.662 131.947, 171 130.848, 171 129.441 C 171 128.034, 170.573 127.146, 170.050 127.469 C 169.528 127.792, 168.628 127.173, 168.050 126.094 C 166.607 123.397, 166.729 119.015, 168.250 118.930 C 168.938 118.891, 168.600 118.473, 167.500 118 L 165.500 117.141 167.500 116.952 C 168.600 116.848, 169.838 116.816, 170.250 116.882 C 170.662 116.947, 171 116.100, 171 115 C 171 113.855, 170.333 113, 169.441 113 C 168.584 113, 168.160 112.550, 168.500 112 C 168.840 111.450, 168.694 111, 168.176 111 C 167.657 111, 166.993 110.080, 166.698 108.955 C 166.258 107.269, 165.460 106.951, 162.169 107.145 C 158.668 107.352, 158.104 107.728, 157.612 110.190 M 75.520 112.032 C 75.777 112.449, 75.293 113.057, 74.442 113.384 C 73.402 113.783, 73.130 113.572, 73.609 112.739 C 74.002 112.057, 73.125 112.591, 71.661 113.924 C 68.981 116.366, 68.156 117.639, 69.989 116.507 C 70.555 116.157, 70.724 116.557, 70.384 117.442 C 70.057 118.293, 69.425 118.763, 68.979 118.487 C 68.532 118.211, 68.167 120.017, 68.167 122.500 C 68.167 124.983, 68.532 126.789, 68.979 126.513 C 69.425 126.237, 70.057 126.707, 70.384 127.558 C 70.775 128.577, 70.555 128.887, 69.739 128.467 C 69.057 128.116, 69.970 129.218, 71.766 130.915 C 74.267 133.278, 75.946 134, 78.939 134 C 83.818 134, 89.087 130.050, 88.288 126.992 C 87.694 124.722, 84.153 124.301, 82.053 126.250 C 81.134 127.103, 80.918 127.124, 81.372 126.315 C 81.811 125.534, 80.922 124.991, 78.769 124.725 C 76.971 124.502, 78.763 124.248, 82.750 124.160 L 90 124 90 121.016 C 90 119.054, 88.943 116.913, 86.915 114.766 C 85.218 112.970, 84.116 112.057, 84.467 112.739 C 84.887 113.555, 84.577 113.775, 83.558 113.384 C 82.707 113.057, 82.223 112.449, 82.480 112.032 C 82.738 111.614, 81.172 111.273, 79 111.273 C 76.828 111.273, 75.262 111.614, 75.520 112.032 M 93.500 112 C 93.840 112.550, 93.416 113, 92.559 113 C 91.233 113, 91 114.805, 91 125.071 C 91 137.891, 91.694 140, 95.910 140 C 97.938 140, 98.895 138.099, 99.249 133.360 C 99.352 131.986, 99.903 131.409, 100.788 131.749 C 101.930 132.187, 101.938 132.424, 100.834 133.124 C 99.966 133.674, 100.792 133.975, 103.194 133.985 C 105.676 133.995, 107.661 133.262, 109.243 131.750 C 110.538 130.512, 110.879 129.950, 110 130.500 C 109.121 131.050, 109.330 130.600, 110.465 129.500 C 111.600 128.400, 112.417 126.600, 112.282 125.500 C 112.146 124.400, 112.291 124.065, 112.603 124.756 C 113.460 126.652, 115 125.202, 115 122.500 C 115 119.786, 113.468 118.361, 112.574 120.244 C 112.246 120.935, 112.166 120.487, 112.395 119.250 C 112.625 118.013, 112.378 117, 111.847 117 C 111.316 117, 111.123 116.610, 111.417 116.134 C 112.470 114.431, 107.810 111.500, 103.953 111.438 C 101.842 111.404, 100.340 111.742, 100.616 112.188 C 100.892 112.635, 100.165 113, 99 113 C 97.835 113, 97.160 112.550, 97.500 112 C 97.852 111.431, 96.991 111, 95.500 111 C 94.009 111, 93.148 111.431, 93.500 112 M 119.462 113.699 C 118.610 114.999, 117.482 115.798, 116.956 115.473 C 115.880 114.808, 115.848 114.980, 115.720 122.250 C 115.641 126.722, 116.050 127.945, 118.477 130.500 C 120.045 132.150, 121.005 132.943, 120.612 132.261 C 120.130 131.428, 120.401 131.217, 121.442 131.616 C 122.293 131.943, 122.740 132.612, 122.435 133.105 C 121.815 134.108, 127.970 134.332, 130.412 133.395 C 131.279 133.063, 131.740 132.388, 131.435 131.895 C 131.131 131.403, 131.528 131, 132.319 131 C 133.109 131, 134.373 130.239, 135.128 129.308 C 136.036 128.188, 136.082 127.867, 135.261 128.360 C 134.421 128.865, 134.214 128.607, 134.616 127.558 C 134.943 126.707, 135.543 126.217, 135.950 126.469 C 136.357 126.721, 136.647 124.961, 136.595 122.559 C 136.543 120.157, 136.086 118.447, 135.580 118.760 C 135.074 119.072, 134.929 118.627, 135.258 117.770 C 135.622 116.821, 134.845 115.293, 133.267 113.856 C 131.843 112.560, 130.998 112.057, 131.391 112.739 C 131.870 113.572, 131.598 113.783, 130.558 113.384 C 129.707 113.057, 129.214 112.463, 129.462 112.062 C 129.709 111.661, 127.909 111.333, 125.462 111.333 C 121.886 111.333, 120.707 111.798, 119.462 113.699 M 140.607 112.582 C 140.273 113.452, 140 118.195, 140 123.122 L 140 132.081 144 131.845 L 148 131.609 148 125.804 C 148 122.386, 148.435 120, 149.059 120 C 149.641 120, 149.840 119.550, 149.500 119 C 149.160 118.450, 149.809 118, 150.941 118 C 152.562 118, 153 117.362, 153 115 C 153 113.350, 152.587 112, 152.082 112 C 151.577 112, 150.378 111.699, 149.418 111.330 C 148.227 110.873, 147.902 111.032, 148.395 111.830 C 148.793 112.474, 148.641 113, 148.059 113 C 146.322 113, 145.484 112.547, 145.750 111.750 C 146.255 110.234, 141.194 111.053, 140.607 112.582 M 180.689 112.306 C 181.071 112.923, 180.703 113.100, 179.779 112.745 C 178.833 112.383, 177.282 113.193, 175.797 114.825 C 171.652 119.383, 173.005 131, 177.681 131 C 178.472 131, 178.869 131.403, 178.565 131.895 C 177.835 133.076, 180.395 134.004, 184.332 133.985 C 187.623 133.969, 190.052 132.918, 190.335 131.388 C 190.426 130.900, 190.871 130.624, 191.324 130.775 C 191.778 130.926, 191.862 130.585, 191.511 130.018 C 191.160 129.450, 191.548 128.727, 192.373 128.410 C 194.534 127.581, 193.186 125, 190.593 125 C 189.387 125, 187.794 125.563, 187.053 126.250 C 186.134 127.103, 185.918 127.124, 186.372 126.315 C 186.811 125.534, 185.922 124.991, 183.769 124.725 C 181.819 124.483, 183.123 124.208, 187 124.042 C 190.575 123.888, 193.838 123.816, 194.250 123.882 C 194.662 123.947, 194.993 122.763, 194.985 121.250 C 194.972 119.051, 194.761 118.800, 193.931 120 C 193.074 121.237, 192.948 121.150, 193.210 119.500 C 193.393 118.348, 192.462 116.493, 191.014 115.125 C 189.624 113.813, 189.394 113.365, 190.500 114.125 C 192.319 115.376, 192.381 115.347, 191.177 113.809 C 190.420 112.842, 189.173 112.380, 188.263 112.729 C 187.304 113.097, 186.926 112.929, 187.311 112.306 C 187.709 111.662, 186.464 111.273, 184 111.273 C 181.536 111.273, 180.291 111.662, 180.689 112.306 M 201.554 112.088 C 201.949 112.727, 199.028 114.333, 198.112 113.979 C 197.296 113.664, 196.030 116.601, 196.015 118.844 C 196.005 120.386, 196.713 121.374, 198.085 121.732 C 199.695 122.153, 199.865 122.484, 198.835 123.183 C 197.841 123.858, 198.011 124.049, 199.500 123.930 C 203.109 123.641, 205.346 123.987, 204.613 124.720 C 204.217 125.116, 202.341 125.307, 200.444 125.144 C 195.428 124.711, 194.701 127.450, 198.849 131.156 C 201.194 133.252, 203.058 134, 205.934 134 C 210.401 134, 213.210 133.149, 212.505 132.009 C 212.239 131.578, 212.778 130.613, 213.703 129.863 C 215.146 128.693, 215.276 128.712, 214.618 130 C 214.196 130.825, 214.560 130.626, 215.426 129.559 C 217.281 127.271, 217.588 123.519, 215.830 124.605 C 215.045 125.090, 214.869 124.784, 215.294 123.676 C 215.685 122.657, 215.463 122.115, 214.714 122.262 C 214.046 122.393, 213.620 121.916, 213.766 121.203 C 213.912 120.489, 213.462 119.980, 212.766 120.071 C 210.265 120.399, 208 119.985, 208 119.201 C 208 118.761, 209.570 118.585, 211.490 118.809 C 215.334 119.258, 217.355 116.873, 214.986 114.683 C 213.977 113.750, 213.884 113.817, 214.545 115 C 215.266 116.290, 215.148 116.309, 213.703 115.137 C 212.778 114.387, 212.265 113.380, 212.563 112.898 C 212.860 112.417, 212.332 112.319, 211.388 112.681 C 210.379 113.069, 209.921 112.937, 210.276 112.362 C 210.638 111.776, 208.924 111.385, 206 111.385 C 203.316 111.385, 201.315 111.701, 201.554 112.088 M 54.813 117.683 C 55.534 117.972, 56.397 117.936, 56.729 117.604 C 57.061 117.272, 56.471 117.036, 55.417 117.079 C 54.252 117.127, 54.015 117.364, 54.813 117.683 M 76.667 117.667 C 75.233 119.100, 76.133 120, 79 120 C 80.650 120, 82 119.612, 82 119.139 C 82 118.665, 80.763 118.446, 79.250 118.653 C 76.894 118.974, 76.786 118.893, 78.500 118.084 C 80 117.377, 80.104 117.123, 78.917 117.070 C 78.046 117.032, 77.033 117.300, 76.667 117.667 M 101.813 117.683 C 102.534 117.972, 103.397 117.936, 103.729 117.604 C 104.061 117.272, 103.471 117.036, 102.417 117.079 C 101.252 117.127, 101.015 117.364, 101.813 117.683 M 182.813 117.683 C 183.534 117.972, 184.397 117.936, 184.729 117.604 C 185.061 117.272, 184.471 117.036, 183.417 117.079 C 182.252 117.127, 182.015 117.364, 182.813 117.683 M 123.500 122.562 C 123.500 126.328, 123.702 126.677, 125.500 126.017 C 126.777 125.549, 127.610 124.194, 127.804 122.269 C 128.053 119.798, 127.692 119.174, 125.804 118.813 C 123.695 118.410, 123.500 118.728, 123.500 122.562 M 52.015 121.809 C 52.005 124.083, 52.366 124.892, 53.170 124.395 C 53.915 123.934, 54.143 124.185, 53.797 125.086 C 53.427 126.050, 53.980 126.500, 55.532 126.500 C 56.784 126.500, 57.600 126.162, 57.345 125.750 C 57.091 125.338, 57.359 125, 57.941 125 C 58.523 125, 59 123.748, 59 122.218 C 59 119.973, 58.518 119.396, 56.500 119.229 C 55.074 119.111, 53.993 119.554, 53.985 120.261 C 53.975 121.072, 53.635 120.982, 53 120 C 52.266 118.865, 52.027 119.305, 52.015 121.809 M 99.512 122.861 C 99.522 125.856, 99.862 126.341, 102.016 126.435 C 104.310 126.536, 104.481 126.244, 104.152 122.792 C 103.853 119.662, 103.438 119.069, 101.647 119.217 C 99.896 119.362, 99.502 120.034, 99.512 122.861 M 182.269 119.693 C 183.242 119.947, 184.592 119.930, 185.269 119.656 C 185.946 119.382, 185.150 119.175, 183.500 119.195 C 181.850 119.215, 181.296 119.439, 182.269 119.693 M 105.195 122.500 C 105.215 124.150, 105.439 124.704, 105.693 123.731 C 105.947 122.758, 105.930 121.408, 105.656 120.731 C 105.382 120.054, 105.175 120.850, 105.195 122.500 M 122.195 122.500 C 122.215 124.150, 122.439 124.704, 122.693 123.731 C 122.947 122.758, 122.930 121.408, 122.656 120.731 C 122.382 120.054, 122.175 120.850, 122.195 122.500 M 174 126.941 C 174 127.459, 174.445 128.157, 174.989 128.493 C 175.555 128.843, 175.723 128.442, 175.382 127.552 C 174.717 125.820, 174 125.503, 174 126.941 M 205.813 127.683 C 206.534 127.972, 207.397 127.936, 207.729 127.604 C 208.061 127.272, 207.471 127.036, 206.417 127.079 C 205.252 127.127, 205.015 127.364, 205.813 127.683 M 61.269 133.693 C 62.242 133.947, 63.592 133.930, 64.269 133.656 C 64.946 133.382, 64.150 133.175, 62.500 133.195 C 60.850 133.215, 60.296 133.439, 61.269 133.693 M 142.269 133.693 C 143.242 133.947, 144.592 133.930, 145.269 133.656 C 145.946 133.382, 145.150 133.175, 143.500 133.195 C 141.850 133.215, 141.296 133.439, 142.269 133.693" stroke="none" fill="#0082ca" fill-rule="evenodd"/><path d="M 6 49.250 L 6 93.500 129.500 93.500 L 253 93.500 253 49.250 L 253 5 129.500 5 L 6 5 6 49.250 M 152.456 10.255 C 152.191 10.946, 152.092 27.483, 152.237 47.005 L 152.500 82.500 160.250 82.792 L 168 83.084 168 46.042 L 168 9 160.469 9 C 155.349 9, 152.783 9.402, 152.456 10.255 M 93.637 26.417 C 89.226 28.044, 84.584 32.123, 82.161 36.500 C 79.711 40.925, 79.740 68.113, 82.199 72.602 C 84.616 77.014, 90.310 81.714, 94.723 82.940 C 99.815 84.354, 126.978 84.286, 132.701 82.845 C 138.926 81.278, 145.398 75.015, 147.010 69 C 148.576 63.159, 147.913 40.479, 146.076 37 C 144.168 33.387, 139.960 29.073, 136.500 27.182 C 132.292 24.882, 99.388 24.295, 93.637 26.417 M 187 26.135 C 181.663 27.712, 176.988 31.788, 174.660 36.892 C 172.861 40.836, 172.554 43.446, 172.531 55 C 172.507 67.567, 172.678 68.808, 175.002 72.956 C 176.376 75.406, 179.450 78.781, 181.833 80.456 L 186.166 83.500 203.577 83.833 C 224.543 84.233, 228.648 83.276, 234.861 76.535 C 239.815 71.160, 240.295 68.777, 239.850 51.737 C 239.519 39.095, 239.347 38.118, 236.749 34.195 C 235.236 31.909, 232.086 29.020, 229.749 27.774 C 225.853 25.697, 224.047 25.492, 208 25.305 C 198.201 25.190, 188.960 25.556, 187 26.135 M 24.962 28.685 C 20.690 32.280, 19 36.621, 19 44 C 19 51.542, 20.795 55.979, 25.205 59.343 C 28.537 61.884, 29.049 61.957, 45.562 62.225 C 61.742 62.488, 62.500 62.590, 62.500 64.500 C 62.500 66.429, 61.743 66.510, 41.250 66.770 L 20 67.040 20 75.020 L 20 83 43.266 83 C 70.157 83, 71.810 82.590, 75.811 74.926 C 78.878 69.051, 78.667 56.738, 75.425 52.318 C 71.387 46.813, 68.158 46.003, 50.250 46.002 C 34.667 46, 34 45.918, 34 44 C 34 42.065, 34.667 42, 54.481 42 L 74.962 42 75.540 39.697 C 75.858 38.430, 75.979 34.942, 75.809 31.947 L 75.500 26.500 51.848 26.232 L 28.196 25.964 24.962 28.685 M 101.527 40.816 C 97.017 41.869, 95.888 45.063, 96.216 55.832 C 96.591 68.159, 96.359 68, 114 68 C 131.728 68, 131.395 68.237, 131.837 55.300 C 132.131 46.703, 131.923 45.127, 130.223 43.028 C 128.385 40.757, 127.591 40.605, 116.386 40.370 C 109.849 40.233, 103.162 40.433, 101.527 40.816 M 194.324 40.718 C 192.578 40.937, 190.665 41.698, 190.075 42.410 C 188.575 44.216, 187.601 54.854, 188.429 60.374 C 189.536 67.757, 190.110 68, 206.416 68 C 224.406 68, 224.006 68.309, 223.985 54.421 C 223.976 48.965, 223.592 43.905, 223.131 43.178 C 222.670 42.450, 220.539 41.449, 218.396 40.952 C 214.579 40.066, 200.610 39.930, 194.324 40.718" stroke="none" fill="#d50056" fill-rule="evenodd"/><path d="M 0 80 L 0 160 129.500 160 L 259 160 259 80 L 259 0 129.500 0 L 0 0 0 80 M 5 48.996 L 5 95 129.510 95 L 254.020 95 253.760 49.250 L 253.500 3.500 129.250 3.246 L 5 2.992 5 48.996 M 153.455 11.256 C 153.190 11.947, 153.092 28.035, 153.237 47.006 L 153.500 81.500 160 81.500 L 166.500 81.500 166.763 45.750 L 167.025 10 160.481 10 C 156.151 10, 153.774 10.425, 153.455 11.256 M 97.451 26.853 C 91.378 27.945, 86.787 31.088, 84.016 36.051 C 81.701 40.198, 81.532 41.452, 81.532 54.500 C 81.532 67.563, 81.699 68.800, 84.029 72.987 C 85.686 75.966, 88.034 78.314, 91.013 79.971 C 95.106 82.248, 96.780 82.499, 110.086 82.838 C 127.754 83.288, 134.678 82.099, 139.611 77.768 C 145.754 72.375, 146.413 70.128, 146.442 54.500 C 146.466 41.412, 146.305 40.208, 143.971 36.013 C 142.318 33.041, 139.981 30.701, 137.054 29.087 C 132.977 26.837, 131.425 26.628, 117.067 26.386 C 108.505 26.242, 99.678 26.452, 97.451 26.853 M 192.500 26.432 C 191.950 26.654, 189.786 27.123, 187.690 27.475 C 182.735 28.305, 176.365 34.025, 175.025 38.848 C 174.468 40.857, 174.011 47.900, 174.011 54.500 C 174.011 61.100, 174.468 68.143, 175.025 70.152 C 176.177 74.299, 182.487 80.541, 186.725 81.725 C 188.251 82.151, 197.150 82.500, 206.500 82.500 C 226.639 82.500, 230.805 81.274, 235.677 73.911 C 238.461 69.705, 238.500 69.436, 238.500 54.573 C 238.500 42.423, 238.179 38.918, 236.845 36.500 C 234.687 32.588, 231.235 29.426, 227.500 27.939 C 224.688 26.819, 194.730 25.529, 192.500 26.432 M 27.207 28.509 C 17.789 32.601, 17.674 53.832, 27.040 59.364 C 29.303 60.701, 32.834 61, 46.369 61 C 61.209 61, 63.028 61.184, 63.880 62.776 C 64.483 63.902, 64.478 65.182, 63.866 66.276 C 63 67.823, 60.741 68, 41.905 68 L 20.909 68 21.204 74.750 L 21.500 81.500 41 81.799 C 65.366 82.173, 68.432 81.768, 72.565 77.635 C 78.200 72, 78.412 57.734, 72.951 51.616 L 70.170 48.500 52.441 48 C 36.979 47.564, 34.572 47.276, 33.612 45.750 C 32.810 44.476, 32.810 43.524, 33.613 42.250 C 34.592 40.696, 36.918 40.470, 54.358 40.229 L 74 39.958 74 33.479 L 74 27 52.250 27.039 C 35.656 27.069, 29.719 27.417, 27.207 28.509 M 99.315 39.969 C 95.815 41.440, 94.998 44.247, 95.032 54.684 C 95.067 65.689, 95.846 67.522, 101.131 69.038 C 105.519 70.296, 122.503 70.266, 127.091 68.991 C 131.930 67.647, 133 64.854, 133 53.564 C 133 39.658, 132.879 39.560, 115.341 39.276 C 107.728 39.152, 100.517 39.464, 99.315 39.969 M 191.767 40.118 C 188.077 41.518, 186.678 46.574, 187.144 56.827 C 187.686 68.774, 188.512 69.400, 204.327 69.847 C 220.008 70.291, 223.336 69.164, 225.057 62.826 C 225.750 60.273, 226.006 55.464, 225.681 51.093 C 224.855 39.975, 224.210 39.552, 207.725 39.291 C 200.450 39.175, 193.270 39.548, 191.767 40.118 M 5.200 98.200 C 3.817 99.583, 3.472 142.621, 4.827 144.754 C 5.459 145.750, 31.171 145.956, 130.061 145.754 L 254.500 145.500 254.769 122.071 C 254.976 103.994, 254.748 98.457, 253.769 97.836 C 253.071 97.393, 197.127 97.024, 129.450 97.015 C 35.061 97.004, 6.120 97.280, 5.200 98.200 M 60 111.107 C 60 114.632, 59.752 115.110, 58.250 114.478 C 53.898 112.649, 52.077 112.832, 49.560 115.349 C 46.239 118.670, 45.941 125.941, 49 129 C 51.171 131.171, 57.408 131.767, 58.554 129.913 C 59.038 129.130, 59.530 129.130, 60.313 129.913 C 60.911 130.511, 61.985 131, 62.700 131 C 63.694 131, 64 128.179, 64 119 C 64 107.667, 63.889 107, 62 107 C 60.325 107, 60 107.667, 60 111.107 M 161 110.459 C 161 112.235, 160.295 113.325, 158.787 113.883 L 156.574 114.702 158.742 115.862 C 160.582 116.847, 160.954 118.039, 161.205 123.761 L 161.500 130.500 164.750 130.813 C 167.164 131.046, 168 130.725, 168 129.563 C 168 128.704, 167.325 128, 166.500 128 C 165.333 128, 165 126.667, 165 122 C 165 117.333, 165.333 116, 166.500 116 C 167.325 116, 168 115.550, 168 115 C 168 114.450, 167.355 114, 166.566 114 C 165.747 114, 164.997 112.825, 164.816 111.259 C 164.384 107.510, 161 106.801, 161 110.459 M 75.249 114.032 C 72.252 115.236, 69.541 121.034, 70.391 124.420 C 70.754 125.867, 71.939 127.939, 73.025 129.025 C 76.343 132.343, 86 131.181, 86 127.465 C 86 125.633, 85.045 125.651, 82.559 127.532 C 79.937 129.515, 78.380 129.380, 75.964 126.964 C 73.025 124.025, 74.327 123, 81 123 C 84.235 123, 87.093 122.658, 87.352 122.240 C 88.345 120.633, 84.985 114.945, 82.480 113.992 C 79.391 112.818, 78.253 112.824, 75.249 114.032 M 100.464 114.059 C 100.089 114.666, 98.571 114.845, 96.905 114.479 L 94 113.841 94 125.832 C 94 136.681, 94.167 137.799, 95.750 137.572 C 97.021 137.389, 97.637 136.113, 98 132.910 C 98.311 130.164, 98.805 128.972, 99.309 129.750 C 100.594 131.736, 106.740 131.260, 109 129 C 112.008 125.992, 111.762 118.671, 108.545 115.455 C 106.026 112.935, 101.628 112.175, 100.464 114.059 M 120.046 115.800 C 114.180 121.667, 117.216 131, 124.991 131 C 130.279 131, 131.824 130.241, 133.625 126.757 C 135.487 123.157, 134.788 118.023, 132.104 115.595 C 131.083 114.671, 128.638 113.653, 126.670 113.334 C 123.612 112.838, 122.651 113.195, 120.046 115.800 M 148.035 114.688 C 146.326 115.885, 145.510 116.030, 145.229 115.188 C 145.012 114.535, 143.971 114, 142.917 114 C 141.178 114, 141 114.790, 141 122.500 C 141 130.333, 141.157 131, 143 131 C 144.721 131, 145 130.333, 145 126.223 C 145 120.854, 147.113 117, 150.057 117 C 151.333 117, 152 116.314, 152 115 C 152 112.559, 151.168 112.494, 148.035 114.688 M 180 114.294 C 174.646 117.002, 173.592 126.200, 178.262 129.471 C 182.254 132.267, 191 130.889, 191 127.465 C 191 125.606, 189.902 125.607, 187.441 127.468 C 184.813 129.456, 182.637 129.361, 180.655 127.171 C 177.639 123.839, 178.613 123, 185.500 123 C 191.241 123, 192 122.776, 192 121.082 C 192 117.820, 190.871 115.985, 187.928 114.463 C 184.491 112.685, 183.234 112.658, 180 114.294 M 201.165 114.597 C 199.593 115.698, 198.981 116.993, 199.193 118.771 C 199.446 120.897, 200.376 121.625, 204.500 122.924 C 208.308 124.124, 209.500 124.977, 209.500 126.500 C 209.500 129.039, 204.899 129.788, 203.042 127.551 C 201.414 125.590, 199 125.538, 199 127.465 C 199 129.552, 202.221 131, 206.863 131 C 211.601 131, 214.234 128.801, 213.804 125.204 C 213.557 123.133, 212.570 122.350, 208.500 120.994 C 202.616 119.034, 201.017 116, 205.868 116 C 207.526 116, 209.160 116.450, 209.500 117 C 210.408 118.470, 213 118.218, 213 116.661 C 213 115.078, 208.841 113, 205.675 113 C 204.449 113, 202.419 113.719, 201.165 114.597 M 52.200 117.200 C 50.478 118.922, 50.719 125.576, 52.571 127.429 C 55.974 130.831, 60 127.958, 60 122.129 C 60 117.925, 58.586 116, 55.500 116 C 54.345 116, 52.860 116.540, 52.200 117.200 M 75.562 117.581 C 73.312 119.831, 74.507 121, 79.059 121 C 83.123 121, 84.161 119.561, 81.800 117.200 C 80.136 115.536, 77.442 115.701, 75.562 117.581 M 98.927 117.588 C 98.202 118.462, 97.655 120.800, 97.711 122.783 C 97.946 131.069, 107 130.793, 107 122.500 C 107 116.960, 101.982 113.907, 98.927 117.588 M 122.625 117.518 C 120.342 119.801, 120.550 125.283, 123.004 127.504 C 127.435 131.514, 133.004 124.672, 129.870 119.069 C 128.146 115.987, 124.859 115.284, 122.625 117.518 M 180.035 117.934 C 178.474 120.851, 178.643 121, 183.500 121 C 186.526 121, 188 120.574, 188 119.700 C 188 116.002, 181.804 114.628, 180.035 117.934 M 5 151.996 L 5 156 130.060 156 L 255.121 156 254.810 152.250 L 254.500 148.500 129.750 148.246 L 5 147.992 5 151.996" stroke="none" fill="#ffffff" fill-rule="evenodd"/><path d="M 66.750 3.750 C 100.988 3.896, 157.013 3.896, 191.250 3.750 C 225.488 3.604, 197.475 3.485, 129 3.485 C 60.525 3.485, 32.513 3.604, 66.750 3.750 M 97.750 26.662 C 98.438 26.940, 99.563 26.940, 100.250 26.662 C 100.938 26.385, 100.375 26.158, 99 26.158 C 97.625 26.158, 97.063 26.385, 97.750 26.662 M 127.750 26.662 C 128.438 26.940, 129.563 26.940, 130.250 26.662 C 130.938 26.385, 130.375 26.158, 129 26.158 C 127.625 26.158, 127.063 26.385, 127.750 26.662 M 189.750 26.662 C 190.438 26.940, 191.563 26.940, 192.250 26.662 C 192.938 26.385, 192.375 26.158, 191 26.158 C 189.625 26.158, 189.063 26.385, 189.750 26.662 M 219.750 26.662 C 220.438 26.940, 221.563 26.940, 222.250 26.662 C 222.938 26.385, 222.375 26.158, 221 26.158 C 219.625 26.158, 219.063 26.385, 219.750 26.662 M 74.189 33.229 L 74 39.958 54.250 40.251 L 34.500 40.545 54.281 40.772 C 70.209 40.956, 74.165 40.735, 74.585 39.638 C 74.873 38.889, 74.944 35.626, 74.743 32.388 L 74.378 26.500 74.189 33.229 M 178.924 31.750 L 176.500 34.500 179.250 32.076 C 181.820 29.810, 182.459 29, 181.674 29 C 181.495 29, 180.258 30.238, 178.924 31.750 M 232 30.378 C 232 30.585, 232.787 31.373, 233.750 32.128 C 235.336 33.371, 235.371 33.336, 234.128 31.750 C 232.821 30.084, 232 29.555, 232 30.378 M 101.750 39.662 C 102.438 39.940, 103.563 39.940, 104.250 39.662 C 104.938 39.385, 104.375 39.158, 103 39.158 C 101.625 39.158, 101.063 39.385, 101.750 39.662 M 123.269 39.693 C 124.242 39.947, 125.592 39.930, 126.269 39.656 C 126.946 39.382, 126.150 39.175, 124.500 39.195 C 122.850 39.215, 122.296 39.439, 123.269 39.693 M 194.750 39.662 C 195.438 39.940, 196.563 39.940, 197.250 39.662 C 197.938 39.385, 197.375 39.158, 196 39.158 C 194.625 39.158, 194.063 39.385, 194.750 39.662 M 215.750 39.662 C 216.438 39.940, 217.563 39.940, 218.250 39.662 C 218.938 39.385, 218.375 39.158, 217 39.158 C 215.625 39.158, 215.063 39.385, 215.750 39.662 M 96.872 41.750 C 95.629 43.336, 95.664 43.371, 97.250 42.128 C 98.916 40.821, 99.445 40, 98.622 40 C 98.415 40, 97.627 40.788, 96.872 41.750 M 129 40.378 C 129 40.585, 129.787 41.373, 130.750 42.128 C 132.336 43.371, 132.371 43.336, 131.128 41.750 C 129.821 40.084, 129 39.555, 129 40.378 M 238.079 41.583 C 238.127 42.748, 238.364 42.985, 238.683 42.188 C 238.972 41.466, 238.936 40.603, 238.604 40.271 C 238.272 39.939, 238.036 40.529, 238.079 41.583 M 146.195 44.500 C 146.215 46.150, 146.439 46.704, 146.693 45.731 C 146.947 44.758, 146.930 43.408, 146.656 42.731 C 146.382 42.054, 146.175 42.850, 146.195 44.500 M 223.564 43.293 C 223.940 44.279, 224.499 44.834, 224.807 44.526 C 225.115 44.219, 224.808 43.412, 224.124 42.733 C 223.136 41.753, 223.022 41.868, 223.564 43.293 M 81.158 45 C 81.158 46.375, 81.385 46.938, 81.662 46.250 C 81.940 45.563, 81.940 44.438, 81.662 43.750 C 81.385 43.063, 81.158 43.625, 81.158 45 M 173.355 54.500 C 173.352 59.450, 173.521 61.601, 173.731 59.280 C 173.940 56.959, 173.943 52.909, 173.736 50.280 C 173.530 47.651, 173.358 49.550, 173.355 54.500 M 187.158 48 C 187.158 49.375, 187.385 49.938, 187.662 49.250 C 187.940 48.563, 187.940 47.438, 187.662 46.750 C 187.385 46.063, 187.158 46.625, 187.158 48 M 42.750 47.744 C 47.288 47.929, 54.712 47.929, 59.250 47.744 C 63.788 47.559, 60.075 47.407, 51 47.407 C 41.925 47.407, 38.212 47.559, 42.750 47.744 M 225.328 54.500 C 225.333 58.350, 225.513 59.802, 225.730 57.728 C 225.946 55.653, 225.943 52.503, 225.722 50.728 C 225.501 48.952, 225.324 50.650, 225.328 54.500 M 72.500 51 C 73.495 52.100, 74.535 53, 74.810 53 C 75.085 53, 74.495 52.100, 73.500 51 C 72.505 49.900, 71.465 49, 71.190 49 C 70.915 49, 71.505 49.900, 72.500 51 M 76.079 58.583 C 76.127 59.748, 76.364 59.985, 76.683 59.188 C 76.972 58.466, 76.936 57.603, 76.604 57.271 C 76.272 56.939, 76.036 57.529, 76.079 58.583 M 187.158 61 C 187.158 62.375, 187.385 62.938, 187.662 62.250 C 187.940 61.563, 187.940 60.438, 187.662 59.750 C 187.385 59.063, 187.158 59.625, 187.158 61 M 81.195 64.500 C 81.215 66.150, 81.439 66.704, 81.693 65.731 C 81.947 64.758, 81.930 63.408, 81.656 62.731 C 81.382 62.054, 81.175 62.850, 81.195 64.500 M 146.195 64.500 C 146.215 66.150, 146.439 66.704, 146.693 65.731 C 146.947 64.758, 146.930 63.408, 146.656 62.731 C 146.382 62.054, 146.175 62.850, 146.195 64.500 M 238.079 67.583 C 238.127 68.748, 238.364 68.985, 238.683 68.188 C 238.972 67.466, 238.936 66.603, 238.604 66.271 C 238.272 65.939, 238.036 66.529, 238.079 67.583 M 76.079 70.583 C 76.127 71.748, 76.364 71.985, 76.683 71.188 C 76.972 70.466, 76.936 69.603, 76.604 69.271 C 76.272 68.939, 76.036 69.529, 76.079 70.583 M 108.250 69.739 C 111.412 69.937, 116.587 69.937, 119.750 69.739 C 122.912 69.541, 120.325 69.378, 114 69.378 C 107.675 69.378, 105.087 69.541, 108.250 69.739 M 200.789 69.741 C 204.248 69.937, 209.648 69.936, 212.789 69.738 C 215.930 69.540, 213.100 69.380, 206.500 69.382 C 199.900 69.384, 197.330 69.546, 200.789 69.741 M 140.437 77.250 L 137.500 80.500 140.750 77.563 C 142.537 75.948, 144 74.485, 144 74.313 C 144 73.540, 143.175 74.221, 140.437 77.250 M 179 77.500 C 180.292 78.875, 181.574 80, 181.849 80 C 182.124 80, 181.292 78.875, 180 77.500 C 178.708 76.125, 177.426 75, 177.151 75 C 176.876 75, 177.708 76.125, 179 77.500 M 71.872 78.750 C 70.629 80.336, 70.664 80.371, 72.250 79.128 C 73.916 77.821, 74.445 77, 73.622 77 C 73.415 77, 72.627 77.787, 71.872 78.750 M 128.813 82.683 C 129.534 82.972, 130.397 82.936, 130.729 82.604 C 131.061 82.272, 130.471 82.036, 129.417 82.079 C 128.252 82.127, 128.015 82.364, 128.813 82.683 M 189.813 82.683 C 190.534 82.972, 191.397 82.936, 191.729 82.604 C 192.061 82.272, 191.471 82.036, 190.417 82.079 C 189.252 82.127, 189.015 82.364, 189.813 82.683 M 220.813 82.683 C 221.534 82.972, 222.397 82.936, 222.729 82.604 C 223.061 82.272, 222.471 82.036, 221.417 82.079 C 220.252 82.127, 220.015 82.364, 220.813 82.683 M 67.328 94.750 C 101.883 94.896, 158.133 94.896, 192.328 94.750 C 226.522 94.604, 198.250 94.485, 129.500 94.485 C 60.750 94.485, 32.772 94.604, 67.328 94.750 M 67.172 97.750 C 101.092 97.896, 156.892 97.896, 191.172 97.750 C 225.453 97.604, 197.700 97.485, 129.500 97.485 C 61.300 97.484, 33.253 97.604, 67.172 97.750 M 254.230 121.246 L 254 144.992 129.250 145.250 L 4.500 145.508 129.281 145.754 C 229.496 145.952, 254.159 145.750, 254.551 144.728 C 254.819 144.029, 254.909 133.116, 254.750 120.478 L 254.461 97.500 254.230 121.246 M 4.429 121.500 C 4.429 134.150, 4.573 139.187, 4.747 132.694 C 4.922 126.200, 4.921 115.850, 4.746 109.694 C 4.571 103.537, 4.428 108.850, 4.429 121.500 M 61.750 106.706 C 63.933 107.126, 64 107.492, 64 119.070 C 64 128.192, 63.694 131, 62.700 131 C 61.985 131, 60.911 130.511, 60.313 129.913 C 59.530 129.130, 59.009 129.200, 58.453 130.163 C 58.027 130.898, 58.048 131.166, 58.498 130.759 C 58.948 130.351, 59.914 130.514, 60.645 131.121 C 61.376 131.727, 62.655 131.963, 63.487 131.643 C 64.726 131.168, 65 128.795, 65 118.531 L 65 106 62.250 106.136 C 59.892 106.253, 59.821 106.334, 61.750 106.706 M 160.116 110.177 C 160.045 111.819, 159.324 113.030, 158.250 113.311 C 156.610 113.739, 156.612 113.775, 158.281 113.884 C 160.310 114.016, 161.391 111.972, 160.701 109.308 C 160.386 108.094, 160.194 108.379, 160.116 110.177 M 57 114 C 57.825 114.533, 58.950 114.969, 59.500 114.969 C 60.050 114.969, 59.825 114.533, 59 114 C 58.175 113.467, 57.050 113.031, 56.500 113.031 C 55.950 113.031, 56.175 113.467, 57 114 M 93.216 125.750 L 93.432 138.500 93.748 126.142 C 94.047 114.417, 94.164 113.810, 96.032 114.298 C 97.114 114.581, 98 114.405, 98 113.906 C 98 113.408, 96.875 113, 95.500 113 L 93 113 93.216 125.750 M 142.500 113.732 C 143.600 114.007, 144.789 114.689, 145.141 115.249 C 145.547 115.893, 146.637 115.668, 148.114 114.633 C 149.396 113.735, 149.985 113, 149.423 113 C 148.860 113, 147.911 113.489, 147.313 114.087 C 146.530 114.870, 146.038 114.870, 145.554 114.087 C 145.184 113.489, 143.896 113.052, 142.691 113.116 C 140.658 113.224, 140.644 113.268, 142.500 113.732 M 166.250 113.689 C 168.403 114.252, 168.529 115.689, 166.480 116.325 C 165.405 116.659, 165.475 116.750, 166.719 116.637 C 167.686 116.549, 168.628 115.695, 168.812 114.739 C 169.057 113.467, 168.523 113.031, 166.823 113.116 C 165.129 113.201, 164.974 113.356, 166.250 113.689 M 186 113.393 C 186 113.609, 186.698 114.054, 187.552 114.382 C 188.442 114.723, 188.843 114.555, 188.493 113.989 C 187.906 113.038, 186 112.583, 186 113.393 M 199.567 114.926 C 198.609 115.985, 198.037 117.672, 198.296 118.676 C 198.684 120.174, 198.789 120.109, 198.884 118.307 C 198.948 117.100, 200 115.413, 201.223 114.557 C 202.445 113.701, 202.965 113, 202.377 113 C 201.790 113, 200.526 113.867, 199.567 114.926 M 209 113.393 C 209 113.609, 209.698 114.054, 210.552 114.382 C 211.442 114.723, 211.843 114.555, 211.493 113.989 C 210.906 113.038, 209 112.583, 209 113.393 M 47.980 115.524 C 47.284 116.362, 46.909 117.242, 47.145 117.479 C 47.382 117.715, 48.125 117.030, 48.796 115.955 C 50.248 113.630, 49.764 113.375, 47.980 115.524 M 71.388 116.531 C 70.475 117.923, 69.911 119.244, 70.133 119.467 C 70.356 119.689, 71.296 118.550, 72.222 116.935 C 74.286 113.340, 73.673 113.043, 71.388 116.531 M 118.494 116.006 C 117.496 117.110, 116.864 118.190, 117.089 118.408 C 117.315 118.626, 118.309 117.723, 119.297 116.402 C 121.479 113.484, 120.994 113.245, 118.494 116.006 M 131 114.378 C 131 114.585, 131.787 115.373, 132.750 116.128 C 134.336 117.371, 134.371 117.336, 133.128 115.750 C 131.821 114.084, 131 113.555, 131 114.378 M 176.872 115.750 C 175.629 117.336, 175.664 117.371, 177.250 116.128 C 178.213 115.373, 179 114.585, 179 114.378 C 179 113.555, 178.179 114.084, 176.872 115.750 M 158.195 116.265 C 159.346 117.199, 160.007 119.542, 160.256 123.570 L 160.622 129.500 160.811 123.285 C 160.980 117.734, 160.760 116.954, 158.750 115.980 C 156.761 115.016, 156.697 115.049, 158.195 116.265 M 52.200 117.200 C 51.540 117.860, 51.014 118.873, 51.030 119.450 C 51.047 120.028, 51.519 119.713, 52.080 118.750 C 52.641 117.787, 54.180 117, 55.500 117 C 56.820 117, 58.359 117.787, 58.920 118.750 C 59.481 119.713, 59.953 120.028, 59.970 119.450 C 60.019 117.745, 57.758 116, 55.500 116 C 54.345 116, 52.860 116.540, 52.200 117.200 M 77.750 116.662 C 78.438 116.940, 79.563 116.940, 80.250 116.662 C 80.938 116.385, 80.375 116.158, 79 116.158 C 77.625 116.158, 77.063 116.385, 77.750 116.662 M 98.872 117.750 C 97.679 119.272, 97.695 119.351, 99 118.358 C 99.825 117.729, 101.400 116.994, 102.500 116.724 C 104.400 116.257, 104.393 116.226, 102.372 116.116 C 101.202 116.052, 99.627 116.787, 98.872 117.750 M 125.500 116.724 C 126.600 116.994, 128.175 117.729, 129 118.358 C 130.305 119.351, 130.321 119.272, 129.128 117.750 C 128.373 116.787, 126.798 116.052, 125.628 116.116 C 123.607 116.226, 123.600 116.257, 125.500 116.724 M 180.652 116.754 C 180.396 117.169, 181.564 117.506, 183.248 117.504 C 184.945 117.502, 186.518 118.109, 186.777 118.867 C 187.136 119.915, 186.285 120.142, 183.122 119.840 C 180.855 119.624, 179 119.797, 179 120.224 C 179 120.651, 181.025 121, 183.500 121 C 188.115 121, 189.270 119.670, 186.800 117.200 C 185.470 115.870, 181.381 115.574, 180.652 116.754 M 208.872 117.339 C 210.704 119.555, 214.004 119.497, 213.985 117.250 C 213.972 115.757, 213.829 115.720, 213.015 117 C 212.187 118.303, 211.761 118.314, 209.781 117.089 C 207.691 115.797, 207.615 115.818, 208.872 117.339 M 146.872 118.750 C 145.603 120.369, 145.650 120.390, 147.500 119.033 C 148.600 118.226, 149.688 117.439, 149.917 117.283 C 150.146 117.127, 149.863 117, 149.289 117 C 148.715 117, 147.627 117.787, 146.872 118.750 M 46.252 122.500 C 46.263 124.700, 46.468 125.482, 46.707 124.238 C 46.946 122.994, 46.937 121.194, 46.687 120.238 C 46.437 119.282, 46.241 120.300, 46.252 122.500 M 74.915 120.315 C 75.367 120.767, 77.483 120.984, 79.618 120.797 L 83.500 120.458 78.796 119.975 C 76.210 119.710, 74.463 119.863, 74.915 120.315 M 192.079 120.750 C 192.005 122.844, 191.551 123, 185.500 123 C 180.722 123, 179 123.356, 179 124.345 C 179 126.430, 182.644 129.229, 184.676 128.704 C 186.269 128.292, 186.240 128.217, 184.450 128.116 C 182.358 127.998, 180 126.241, 180 124.800 C 180 124.360, 182.714 124, 186.031 124 C 192.129 124, 193.913 122.868, 192.673 119.783 C 192.390 119.077, 192.122 119.513, 192.079 120.750 M 111.195 122.500 C 111.215 124.150, 111.439 124.704, 111.693 123.731 C 111.947 122.758, 111.930 121.408, 111.656 120.731 C 111.382 120.054, 111.175 120.850, 111.195 122.500 M 116.195 122.500 C 116.215 124.150, 116.439 124.704, 116.693 123.731 C 116.947 122.758, 116.930 121.408, 116.656 120.731 C 116.382 120.054, 116.175 120.850, 116.195 122.500 M 130.195 122.500 C 130.215 124.150, 130.439 124.704, 130.693 123.731 C 130.947 122.758, 130.930 121.408, 130.656 120.731 C 130.382 120.054, 130.175 120.850, 130.195 122.500 M 145.175 125.680 C 145.023 130.190, 144.709 130.917, 142.750 131.294 L 140.500 131.728 142.781 131.864 C 145.590 132.031, 146.239 130.495, 145.738 124.864 L 145.349 120.500 145.175 125.680 M 81.500 122.744 C 78.200 122.945, 75.183 123.423, 74.795 123.805 C 74.408 124.187, 77.220 124.351, 81.045 124.168 C 84.870 123.985, 88 123.423, 88 122.918 C 88 122.413, 87.888 122.085, 87.750 122.189 C 87.612 122.293, 84.800 122.543, 81.500 122.744 M 204.813 123.683 C 205.534 123.972, 206.397 123.936, 206.729 123.604 C 207.061 123.272, 206.471 123.036, 205.417 123.079 C 204.252 123.127, 204.015 123.364, 204.813 123.683 M 121 124.623 C 121 126.321, 124.755 129.257, 126.192 128.682 C 127.066 128.332, 126.938 128.132, 125.807 128.079 C 124.875 128.036, 123.413 127, 122.557 125.777 C 121.701 124.555, 121 124.035, 121 124.623 M 213.825 126.326 C 213.452 128.151, 213.592 128.808, 214.218 128.182 C 214.751 127.649, 215.011 126.377, 214.794 125.356 C 214.503 123.981, 214.251 124.233, 213.825 126.326 M 70 125.941 C 70 126.459, 70.445 127.157, 70.989 127.493 C 71.555 127.843, 71.723 127.442, 71.382 126.552 C 70.717 124.820, 70 124.503, 70 125.941 M 98 125.941 C 98 126.459, 98.445 127.157, 98.989 127.493 C 99.555 127.843, 99.723 127.442, 99.382 126.552 C 98.717 124.820, 98 124.503, 98 125.941 M 133.564 126.707 C 133.022 128.132, 133.136 128.247, 134.124 127.267 C 134.808 126.588, 135.115 125.781, 134.807 125.474 C 134.499 125.166, 133.940 125.721, 133.564 126.707 M 198.459 126.067 C 198.096 126.653, 198.070 127.403, 198.400 127.733 C 198.730 128.063, 199 127.756, 199 127.050 C 199 126.259, 199.767 125.967, 201.001 126.290 C 202.102 126.578, 202.751 126.405, 202.442 125.907 C 201.676 124.667, 199.264 124.764, 198.459 126.067 M 208 128 C 207.099 128.582, 206.975 128.975, 207.691 128.985 C 208.346 128.993, 209.160 128.550, 209.500 128 C 210.267 126.758, 209.921 126.758, 208 128 M 54.813 128.683 C 55.534 128.972, 56.397 128.936, 56.729 128.604 C 57.061 128.272, 56.471 128.036, 55.417 128.079 C 54.252 128.127, 54.015 128.364, 54.813 128.683 M 78.813 128.683 C 79.534 128.972, 80.397 128.936, 80.729 128.604 C 81.061 128.272, 80.471 128.036, 79.417 128.079 C 78.252 128.127, 78.015 128.364, 78.813 128.683 M 101.813 128.683 C 102.534 128.972, 103.397 128.936, 103.729 128.604 C 104.061 128.272, 103.471 128.036, 102.417 128.079 C 101.252 128.127, 101.015 128.364, 101.813 128.683 M 118 128.378 C 118 128.585, 118.787 129.373, 119.750 130.128 C 121.336 131.371, 121.371 131.336, 120.128 129.750 C 118.821 128.084, 118 127.555, 118 128.378 M 168 129.267 C 168 130.245, 166.931 131.029, 165.250 131.284 L 162.500 131.700 165.281 131.850 C 167.934 131.993, 170.061 129.727, 168.624 128.290 C 168.281 127.947, 168 128.387, 168 129.267 M 177.226 129.579 C 178.176 130.570, 179.168 131.166, 179.431 130.903 C 179.694 130.640, 178.917 129.829, 177.705 129.100 C 175.598 127.835, 175.577 127.857, 177.226 129.579 M 84.648 129.685 C 84.271 130.062, 82.059 130.681, 79.731 131.060 L 75.500 131.750 79.059 131.875 C 81.016 131.944, 83.491 131.339, 84.559 130.532 C 85.626 129.724, 86.237 129.049, 85.917 129.032 C 85.596 129.014, 85.025 129.308, 84.648 129.685 M 199.733 130.124 C 200.412 130.808, 201.219 131.115, 201.526 130.807 C 201.834 130.499, 201.279 129.940, 200.293 129.564 C 198.868 129.022, 198.753 129.136, 199.733 130.124 M 50.879 131.279 C 51.362 131.762, 53.049 131.995, 54.628 131.798 C 57.272 131.468, 57.202 131.399, 53.751 130.921 C 51.601 130.623, 50.376 130.776, 50.879 131.279 M 104 131 L 100.500 131.737 103.691 131.868 C 105.446 131.941, 107.160 131.550, 107.500 131 C 107.840 130.450, 107.979 130.059, 107.809 130.132 C 107.639 130.204, 105.925 130.595, 104 131 M 123.762 131.707 C 125.006 131.946, 126.806 131.937, 127.762 131.687 C 128.718 131.437, 127.700 131.241, 125.500 131.252 C 123.300 131.263, 122.518 131.468, 123.762 131.707 M 182.250 131.689 C 183.213 131.941, 184.787 131.941, 185.750 131.689 C 186.713 131.438, 185.925 131.232, 184 131.232 C 182.075 131.232, 181.287 131.438, 182.250 131.689 M 204.762 131.707 C 206.006 131.946, 207.806 131.937, 208.762 131.687 C 209.718 131.437, 208.700 131.241, 206.500 131.252 C 204.300 131.263, 203.518 131.468, 204.762 131.707 M 129.190 148.748 L 253.880 149.008 254.295 152.513 L 254.710 156.017 254.605 152.259 L 254.500 148.500 129.500 148.494 L 4.500 148.488 129.190 148.748" stroke="none" fill="#b6e3f2" fill-rule="evenodd"/><path d="M 5 152.500 L 5 156 129.500 156 L 254 156 254 152.500 L 254 149 129.500 149 L 5 149 5 152.500" stroke="none" fill="#009844" fill-rule="evenodd"/><path d="M 7 121.500 L 7 143 129.500 143 L 252 143 252 121.500 L 252 100 129.500 100 L 7 100 7 121.500 M 59.607 105.582 C 59.273 106.452, 59 108.477, 59 110.082 C 59 111.687, 58.523 113, 57.941 113 C 57.359 113, 57.135 112.590, 57.445 112.089 C 57.755 111.587, 56.250 111.250, 54.100 111.339 C 48.544 111.568, 44 116.388, 44 122.050 C 44 124.819, 44.361 125.895, 45.130 125.420 C 45.807 125.001, 46.080 125.260, 45.812 126.065 C 45.565 126.804, 46.519 128.498, 47.932 129.829 C 49.344 131.160, 49.804 131.856, 48.953 131.375 C 48.102 130.894, 48.264 131.287, 49.314 132.250 C 51.462 134.220, 57.506 134.608, 58.595 132.845 C 59.068 132.082, 58.866 131.965, 58 132.500 C 57.215 132.985, 56.934 132.915, 57.299 132.325 C 57.634 131.784, 59.953 131.456, 62.454 131.598 L 67 131.854 67 118.927 C 67 109.119, 66.698 106.060, 65.750 106.250 C 65.063 106.388, 64.612 105.938, 64.750 105.250 C 65.120 103.402, 60.325 103.711, 59.607 105.582 M 161.813 105.683 C 162.534 105.972, 163.397 105.936, 163.729 105.604 C 164.061 105.272, 163.471 105.036, 162.417 105.079 C 161.252 105.127, 161.015 105.364, 161.813 105.683 M 157.612 110.190 C 157.291 111.796, 156.396 113, 155.525 113 C 154.641 113, 154 113.885, 154 115.107 C 154 116.458, 154.481 117.029, 155.341 116.700 C 156.078 116.417, 157.316 116.587, 158.091 117.077 C 158.866 117.568, 159.050 117.975, 158.500 117.983 C 157.908 117.991, 157.638 120.445, 157.839 124.002 C 158.025 127.305, 158.556 129.775, 159.017 129.489 C 159.478 129.204, 160.129 129.831, 160.463 130.883 C 160.892 132.236, 161.717 132.653, 163.285 132.311 C 165.071 131.920, 165.209 132.034, 164 132.898 C 162.819 133.741, 163.244 133.969, 166 133.969 C 168.625 133.969, 169.125 133.727, 168 133 C 166.667 132.138, 166.667 132.016, 168 131.897 C 168.825 131.823, 169.838 131.816, 170.250 131.882 C 170.662 131.947, 171 130.848, 171 129.441 C 171 128.034, 170.573 127.146, 170.050 127.469 C 169.528 127.792, 168.628 127.173, 168.050 126.094 C 166.607 123.397, 166.729 119.015, 168.250 118.930 C 168.938 118.891, 168.600 118.473, 167.500 118 L 165.500 117.141 167.500 116.952 C 168.600 116.848, 169.838 116.816, 170.250 116.882 C 170.662 116.947, 171 116.100, 171 115 C 171 113.855, 170.333 113, 169.441 113 C 168.584 113, 168.160 112.550, 168.500 112 C 168.840 111.450, 168.694 111, 168.176 111 C 167.657 111, 166.993 110.080, 166.698 108.955 C 166.258 107.269, 165.460 106.951, 162.169 107.145 C 158.668 107.352, 158.104 107.728, 157.612 110.190 M 75.520 112.032 C 75.777 112.449, 75.293 113.057, 74.442 113.384 C 73.402 113.783, 73.130 113.572, 73.609 112.739 C 74.002 112.057, 73.125 112.591, 71.661 113.924 C 68.981 116.366, 68.156 117.639, 69.989 116.507 C 70.555 116.157, 70.724 116.557, 70.384 117.442 C 70.057 118.293, 69.425 118.763, 68.979 118.487 C 68.532 118.211, 68.167 120.017, 68.167 122.500 C 68.167 124.983, 68.532 126.789, 68.979 126.513 C 69.425 126.237, 70.057 126.707, 70.384 127.558 C 70.775 128.577, 70.555 128.887, 69.739 128.467 C 69.057 128.116, 69.970 129.218, 71.766 130.915 C 74.267 133.278, 75.946 134, 78.939 134 C 83.818 134, 89.087 130.050, 88.288 126.992 C 87.694 124.722, 84.153 124.301, 82.053 126.250 C 81.134 127.103, 80.918 127.124, 81.372 126.315 C 81.811 125.534, 80.922 124.991, 78.769 124.725 C 76.971 124.502, 78.763 124.248, 82.750 124.160 L 90 124 90 121.016 C 90 119.054, 88.943 116.913, 86.915 114.766 C 85.218 112.970, 84.116 112.057, 84.467 112.739 C 84.887 113.555, 84.577 113.775, 83.558 113.384 C 82.707 113.057, 82.223 112.449, 82.480 112.032 C 82.738 111.614, 81.172 111.273, 79 111.273 C 76.828 111.273, 75.262 111.614, 75.520 112.032 M 93.500 112 C 93.840 112.550, 93.416 113, 92.559 113 C 91.233 113, 91 114.805, 91 125.071 C 91 137.891, 91.694 140, 95.910 140 C 97.938 140, 98.895 138.099, 99.249 133.360 C 99.352 131.986, 99.903 131.409, 100.788 131.749 C 101.930 132.187, 101.938 132.424, 100.834 133.124 C 99.966 133.674, 100.792 133.975, 103.194 133.985 C 105.676 133.995, 107.661 133.262, 109.243 131.750 C 110.538 130.512, 110.879 129.950, 110 130.500 C 109.121 131.050, 109.330 130.600, 110.465 129.500 C 111.600 128.400, 112.417 126.600, 112.282 125.500 C 112.146 124.400, 112.291 124.065, 112.603 124.756 C 113.460 126.652, 115 125.202, 115 122.500 C 115 119.786, 113.468 118.361, 112.574 120.244 C 112.246 120.935, 112.166 120.487, 112.395 119.250 C 112.625 118.013, 112.378 117, 111.847 117 C 111.316 117, 111.123 116.610, 111.417 116.134 C 112.470 114.431, 107.810 111.500, 103.953 111.438 C 101.842 111.404, 100.340 111.742, 100.616 112.188 C 100.892 112.635, 100.165 113, 99 113 C 97.835 113, 97.160 112.550, 97.500 112 C 97.852 111.431, 96.991 111, 95.500 111 C 94.009 111, 93.148 111.431, 93.500 112 M 119.462 113.699 C 118.610 114.999, 117.482 115.798, 116.956 115.473 C 115.880 114.808, 115.848 114.980, 115.720 122.250 C 115.641 126.722, 116.050 127.945, 118.477 130.500 C 120.045 132.150, 121.005 132.943, 120.612 132.261 C 120.130 131.428, 120.401 131.217, 121.442 131.616 C 122.293 131.943, 122.740 132.612, 122.435 133.105 C 121.815 134.108, 127.970 134.332, 130.412 133.395 C 131.279 133.063, 131.740 132.388, 131.435 131.895 C 131.131 131.403, 131.528 131, 132.319 131 C 133.109 131, 134.373 130.239, 135.128 129.308 C 136.036 128.188, 136.082 127.867, 135.261 128.360 C 134.421 128.865, 134.214 128.607, 134.616 127.558 C 134.943 126.707, 135.543 126.217, 135.950 126.469 C 136.357 126.721, 136.647 124.961, 136.595 122.559 C 136.543 120.157, 136.086 118.447, 135.580 118.760 C 135.074 119.072, 134.929 118.627, 135.258 117.770 C 135.622 116.821, 134.845 115.293, 133.267 113.856 C 131.843 112.560, 130.998 112.057, 131.391 112.739 C 131.870 113.572, 131.598 113.783, 130.558 113.384 C 129.707 113.057, 129.214 112.463, 129.462 112.062 C 129.709 111.661, 127.909 111.333, 125.462 111.333 C 121.886 111.333, 120.707 111.798, 119.462 113.699 M 140.607 112.582 C 140.273 113.452, 140 118.195, 140 123.122 L 140 132.081 144 131.845 L 148 131.609 148 125.804 C 148 122.386, 148.435 120, 149.059 120 C 149.641 120, 149.840 119.550, 149.500 119 C 149.160 118.450, 149.809 118, 150.941 118 C 152.562 118, 153 117.362, 153 115 C 153 113.350, 152.587 112, 152.082 112 C 151.577 112, 150.378 111.699, 149.418 111.330 C 148.227 110.873, 147.902 111.032, 148.395 111.830 C 148.793 112.474, 148.641 113, 148.059 113 C 146.322 113, 145.484 112.547, 145.750 111.750 C 146.255 110.234, 141.194 111.053, 140.607 112.582 M 180.689 112.306 C 181.071 112.923, 180.703 113.100, 179.779 112.745 C 178.833 112.383, 177.282 113.193, 175.797 114.825 C 171.652 119.383, 173.005 131, 177.681 131 C 178.472 131, 178.869 131.403, 178.565 131.895 C 177.835 133.076, 180.395 134.004, 184.332 133.985 C 187.623 133.969, 190.052 132.918, 190.335 131.388 C 190.426 130.900, 190.871 130.624, 191.324 130.775 C 191.778 130.926, 191.862 130.585, 191.511 130.018 C 191.160 129.450, 191.548 128.727, 192.373 128.410 C 194.534 127.581, 193.186 125, 190.593 125 C 189.387 125, 187.794 125.563, 187.053 126.250 C 186.134 127.103, 185.918 127.124, 186.372 126.315 C 186.811 125.534, 185.922 124.991, 183.769 124.725 C 181.819 124.483, 183.123 124.208, 187 124.042 C 190.575 123.888, 193.838 123.816, 194.250 123.882 C 194.662 123.947, 194.993 122.763, 194.985 121.250 C 194.972 119.051, 194.761 118.800, 193.931 120 C 193.074 121.237, 192.948 121.150, 193.210 119.500 C 193.393 118.348, 192.462 116.493, 191.014 115.125 C 189.624 113.813, 189.394 113.365, 190.500 114.125 C 192.319 115.376, 192.381 115.347, 191.177 113.809 C 190.420 112.842, 189.173 112.380, 188.263 112.729 C 187.304 113.097, 186.926 112.929, 187.311 112.306 C 187.709 111.662, 186.464 111.273, 184 111.273 C 181.536 111.273, 180.291 111.662, 180.689 112.306 M 201.554 112.088 C 201.949 112.727, 199.028 114.333, 198.112 113.979 C 197.296 113.664, 196.030 116.601, 196.015 118.844 C 196.005 120.386, 196.713 121.374, 198.085 121.732 C 199.695 122.153, 199.865 122.484, 198.835 123.183 C 197.841 123.858, 198.011 124.049, 199.500 123.930 C 203.109 123.641, 205.346 123.987, 204.613 124.720 C 204.217 125.116, 202.341 125.307, 200.444 125.144 C 195.428 124.711, 194.701 127.450, 198.849 131.156 C 201.194 133.252, 203.058 134, 205.934 134 C 210.401 134, 213.210 133.149, 212.505 132.009 C 212.239 131.578, 212.778 130.613, 213.703 129.863 C 215.146 128.693, 215.276 128.712, 214.618 130 C 214.196 130.825, 214.560 130.626, 215.426 129.559 C 217.281 127.271, 217.588 123.519, 215.830 124.605 C 215.045 125.090, 214.869 124.784, 215.294 123.676 C 215.685 122.657, 215.463 122.115, 214.714 122.262 C 214.046 122.393, 213.620 121.916, 213.766 121.203 C 213.912 120.489, 213.462 119.980, 212.766 120.071 C 210.265 120.399, 208 119.985, 208 119.201 C 208 118.761, 209.570 118.585, 211.490 118.809 C 215.334 119.258, 217.355 116.873, 214.986 114.683 C 213.977 113.750, 213.884 113.817, 214.545 115 C 215.266 116.290, 215.148 116.309, 213.703 115.137 C 212.778 114.387, 212.265 113.380, 212.563 112.898 C 212.860 112.417, 212.332 112.319, 211.388 112.681 C 210.379 113.069, 209.921 112.937, 210.276 112.362 C 210.638 111.776, 208.924 111.385, 206 111.385 C 203.316 111.385, 201.315 111.701, 201.554 112.088 M 54.813 117.683 C 55.534 117.972, 56.397 117.936, 56.729 117.604 C 57.061 117.272, 56.471 117.036, 55.417 117.079 C 54.252 117.127, 54.015 117.364, 54.813 117.683 M 76.667 117.667 C 75.233 119.100, 76.133 120, 79 120 C 80.650 120, 82 119.612, 82 119.139 C 82 118.665, 80.763 118.446, 79.250 118.653 C 76.894 118.974, 76.786 118.893, 78.500 118.084 C 80 117.377, 80.104 117.123, 78.917 117.070 C 78.046 117.032, 77.033 117.300, 76.667 117.667 M 101.813 117.683 C 102.534 117.972, 103.397 117.936, 103.729 117.604 C 104.061 117.272, 103.471 117.036, 102.417 117.079 C 101.252 117.127, 101.015 117.364, 101.813 117.683 M 182.813 117.683 C 183.534 117.972, 184.397 117.936, 184.729 117.604 C 185.061 117.272, 184.471 117.036, 183.417 117.079 C 182.252 117.127, 182.015 117.364, 182.813 117.683 M 123.500 122.562 C 123.500 126.328, 123.702 126.677, 125.500 126.017 C 126.777 125.549, 127.610 124.194, 127.804 122.269 C 128.053 119.798, 127.692 119.174, 125.804 118.813 C 123.695 118.410, 123.500 118.728, 123.500 122.562 M 52.015 121.809 C 52.005 124.083, 52.366 124.892, 53.170 124.395 C 53.915 123.934, 54.143 124.185, 53.797 125.086 C 53.427 126.050, 53.980 126.500, 55.532 126.500 C 56.784 126.500, 57.600 126.162, 57.345 125.750 C 57.091 125.338, 57.359 125, 57.941 125 C 58.523 125, 59 123.748, 59 122.218 C 59 119.973, 58.518 119.396, 56.500 119.229 C 55.074 119.111, 53.993 119.554, 53.985 120.261 C 53.975 121.072, 53.635 120.982, 53 120 C 52.266 118.865, 52.027 119.305, 52.015 121.809 M 99.512 122.861 C 99.522 125.856, 99.862 126.341, 102.016 126.435 C 104.310 126.536, 104.481 126.244, 104.152 122.792 C 103.853 119.662, 103.438 119.069, 101.647 119.217 C 99.896 119.362, 99.502 120.034, 99.512 122.861 M 182.269 119.693 C 183.242 119.947, 184.592 119.930, 185.269 119.656 C 185.946 119.382, 185.150 119.175, 183.500 119.195 C 181.850 119.215, 181.296 119.439, 182.269 119.693 M 105.195 122.500 C 105.215 124.150, 105.439 124.704, 105.693 123.731 C 105.947 122.758, 105.930 121.408, 105.656 120.731 C 105.382 120.054, 105.175 120.850, 105.195 122.500 M 122.195 122.500 C 122.215 124.150, 122.439 124.704, 122.693 123.731 C 122.947 122.758, 122.930 121.408, 122.656 120.731 C 122.382 120.054, 122.175 120.850, 122.195 122.500 M 174 126.941 C 174 127.459, 174.445 128.157, 174.989 128.493 C 175.555 128.843, 175.723 128.442, 175.382 127.552 C 174.717 125.820, 174 125.503, 174 126.941 M 205.813 127.683 C 206.534 127.972, 207.397 127.936, 207.729 127.604 C 208.061 127.272, 207.471 127.036, 206.417 127.079 C 205.252 127.127, 205.015 127.364, 205.813 127.683 M 61.269 133.693 C 62.242 133.947, 63.592 133.930, 64.269 133.656 C 64.946 133.382, 64.150 133.175, 62.500 133.195 C 60.850 133.215, 60.296 133.439, 61.269 133.693 M 142.269 133.693 C 143.242 133.947, 144.592 133.930, 145.269 133.656 C 145.946 133.382, 145.150 133.175, 143.500 133.195 C 141.850 133.215, 141.296 133.439, 142.269 133.693" stroke="none" fill="#0082ca" fill-rule="evenodd"/><path d="M 6 49.250 L 6 93.500 129.500 93.500 L 253 93.500 253 49.250 L 253 5 129.500 5 L 6 5 6 49.250 M 152.456 10.255 C 152.191 10.946, 152.092 27.483, 152.237 47.005 L 152.500 82.500 160.250 82.792 L 168 83.084 168 46.042 L 168 9 160.469 9 C 155.349 9, 152.783 9.402, 152.456 10.255 M 93.637 26.417 C 89.226 28.044, 84.584 32.123, 82.161 36.500 C 79.711 40.925, 79.740 68.113, 82.199 72.602 C 84.616 77.014, 90.310 81.714, 94.723 82.940 C 99.815 84.354, 126.978 84.286, 132.701 82.845 C 138.926 81.278, 145.398 75.015, 147.010 69 C 148.576 63.159, 147.913 40.479, 146.076 37 C 144.168 33.387, 139.960 29.073, 136.500 27.182 C 132.292 24.882, 99.388 24.295, 93.637 26.417 M 187 26.135 C 181.663 27.712, 176.988 31.788, 174.660 36.892 C 172.861 40.836, 172.554 43.446, 172.531 55 C 172.507 67.567, 172.678 68.808, 175.002 72.956 C 176.376 75.406, 179.450 78.781, 181.833 80.456 L 186.166 83.500 203.577 83.833 C 224.543 84.233, 228.648 83.276, 234.861 76.535 C 239.815 71.160, 240.295 68.777, 239.850 51.737 C 239.519 39.095, 239.347 38.118, 236.749 34.195 C 235.236 31.909, 232.086 29.020, 229.749 27.774 C 225.853 25.697, 224.047 25.492, 208 25.305 C 198.201 25.190, 188.960 25.556, 187 26.135 M 24.962 28.685 C 20.690 32.280, 19 36.621, 19 44 C 19 51.542, 20.795 55.979, 25.205 59.343 C 28.537 61.884, 29.049 61.957, 45.562 62.225 C 61.742 62.488, 62.500 62.590, 62.500 64.500 C 62.500 66.429, 61.743 66.510, 41.250 66.770 L 20 67.040 20 75.020 L 20 83 43.266 83 C 70.157 83, 71.810 82.590, 75.811 74.926 C 78.878 69.051, 78.667 56.738, 75.425 52.318 C 71.387 46.813, 68.158 46.003, 50.250 46.002 C 34.667 46, 34 45.918, 34 44 C 34 42.065, 34.667 42, 54.481 42 L 74.962 42 75.540 39.697 C 75.858 38.430, 75.979 34.942, 75.809 31.947 L 75.500 26.500 51.848 26.232 L 28.196 25.964 24.962 28.685 M 101.527 40.816 C 97.017 41.869, 95.888 45.063, 96.216 55.832 C 96.591 68.159, 96.359 68, 114 68 C 131.728 68, 131.395 68.237, 131.837 55.300 C 132.131 46.703, 131.923 45.127, 130.223 43.028 C 128.385 40.757, 127.591 40.605, 116.386 40.370 C 109.849 40.233, 103.162 40.433, 101.527 40.816 M 194.324 40.718 C 192.578 40.937, 190.665 41.698, 190.075 42.410 C 188.575 44.216, 187.601 54.854, 188.429 60.374 C 189.536 67.757, 190.110 68, 206.416 68 C 224.406 68, 224.006 68.309, 223.985 54.421 C 223.976 48.965, 223.592 43.905, 223.131 43.178 C 222.670 42.450, 220.539 41.449, 218.396 40.952 C 214.579 40.066, 200.610 39.930, 194.324 40.718" stroke="none" fill="#d50056" fill-rule="evenodd"/><path d="M 6 49.250 L 6 93.500 129.500 93.500 L 253 93.500 253 49.250 L 253 5 129.500 5 L 6 5 6 49.250 M 152.456 10.255 C 152.191 10.946, 152.092 27.483, 152.237 47.005 L 152.500 82.500 160.250 82.792 L 168 83.084 168 46.042 L 168 9 160.469 9 C 155.349 9, 152.783 9.402, 152.456 10.255 M 93.637 26.417 C 89.226 28.044, 84.584 32.123, 82.161 36.500 C 79.711 40.925, 79.740 68.113, 82.199 72.602 C 84.616 77.014, 90.310 81.714, 94.723 82.940 C 99.815 84.354, 126.978 84.286, 132.701 82.845 C 138.926 81.278, 145.398 75.015, 147.010 69 C 148.576 63.159, 147.913 40.479, 146.076 37 C 144.168 33.387, 139.960 29.073, 136.500 27.182 C 132.292 24.882, 99.388 24.295, 93.637 26.417 M 187 26.135 C 181.663 27.712, 176.988 31.788, 174.660 36.892 C 172.861 40.836, 172.554 43.446, 172.531 55 C 172.507 67.567, 172.678 68.808, 175.002 72.956 C 176.376 75.406, 179.450 78.781, 181.833 80.456 L 186.166 83.500 203.577 83.833 C 224.543 84.233, 228.648 83.276, 234.861 76.535 C 239.815 71.160, 240.295 68.777, 239.850 51.737 C 239.519 39.095, 239.347 38.118, 236.749 34.195 C 235.236 31.909, 232.086 29.020, 229.749 27.774 C 225.853 25.697, 224.047 25.492, 208 25.305 C 198.201 25.190, 188.960 25.556, 187 26.135 M 24.962 28.685 C 20.690 32.280, 19 36.621, 19 44 C 19 51.542, 20.795 55.979, 25.205 59.343 C 28.537 61.884, 29.049 61.957, 45.562 62.225 C 61.742 62.488, 62.500 62.590, 62.500 64.500 C 62.500 66.429, 61.743 66.510, 41.250 66.770 L 20 67.040 20 75.020 L 20 83 43.266 83 C 70.157 83, 71.810 82.590, 75.811 74.926 C 78.878 69.051, 78.667 56.738, 75.425 52.318 C 71.387 46.813, 68.158 46.003, 50.250 46.002 C 34.667 46, 34 45.918, 34 44 C 34 42.065, 34.667 42, 54.481 42 L 74.962 42 75.540 39.697 C 75.858 38.430, 75.979 34.942, 75.809 31.947 L 75.500 26.500 51.848 26.232 L 28.196 25.964 24.962 28.685 M 101.527 40.816 C 97.017 41.869, 95.888 45.063, 96.216 55.832 C 96.591 68.159, 96.359 68, 114 68 C 131.728 68, 131.395 68.237, 131.837 55.300 C 132.131 46.703, 131.923 45.127, 130.223 43.028 C 128.385 40.757, 127.591 40.605, 116.386 40.370 C 109.849 40.233, 103.162 40.433, 101.527 40.816 M 194.324 40.718 C 192.578 40.937, 190.665 41.698, 190.075 42.410 C 188.575 44.216, 187.601 54.854, 188.429 60.374 C 189.536 67.757, 190.110 68, 206.416 68 C 224.406 68, 224.006 68.309, 223.985 54.421 C 223.976 48.965, 223.592 43.905, 223.131 43.178 C 222.670 42.450, 220.539 41.449, 218.396 40.952 C 214.579 40.066, 200.610 39.930, 194.324 40.718" stroke="none" fill="#d50056" fill-rule="evenodd"/><path d="M 129.750 98.750 L 253 99.008 253 121.500 L 253 143.992 129.750 144.250 L 6.500 144.508 130.250 144.754 L 254 145 254 121.500 L 254 98 130.250 98.246 L 6.500 98.492 129.750 98.750 M 5.429 122.500 C 5.429 135.150, 5.573 140.187, 5.747 133.694 C 5.922 127.200, 5.921 116.850, 5.746 110.694 C 5.571 104.537, 5.428 109.850, 5.429 122.500 M 59.543 106.250 C 58.639 109.114, 58.406 114, 59.173 114 C 59.628 114, 60 112.231, 60 110.070 C 60 106.789, 60.372 106.067, 62.250 105.706 L 64.500 105.272 62.219 105.136 C 60.964 105.061, 59.760 105.563, 59.543 106.250 M 64.995 119.204 C 64.723 126.191, 64.852 131.553, 65.283 131.120 C 65.714 130.688, 65.937 124.971, 65.779 118.417 L 65.491 106.500 64.995 119.204 M 159.345 108.543 C 159.019 109.392, 159.034 110.367, 159.376 110.710 C 159.719 111.053, 160 110.583, 160 109.667 C 160 108.568, 160.829 108, 162.434 108 C 164.321 108, 164.961 108.617, 165.284 110.750 C 165.671 113.310, 165.711 113.275, 165.850 110.250 C 165.988 107.265, 165.753 107, 162.969 107 C 161.159 107, 159.699 107.622, 159.345 108.543 M 49.314 113.750 C 48.264 114.713, 48.013 115.088, 48.755 114.584 C 49.498 114.080, 51.769 113.345, 53.802 112.949 C 57.453 112.239, 57.460 112.229, 54.361 112.115 C 52.623 112.051, 50.370 112.781, 49.314 113.750 M 77.250 112.689 C 78.213 112.941, 79.787 112.941, 80.750 112.689 C 81.713 112.438, 80.925 112.232, 79 112.232 C 77.075 112.232, 76.287 112.438, 77.250 112.689 M 94.813 112.683 C 95.534 112.972, 96.397 112.936, 96.729 112.604 C 97.061 112.272, 96.471 112.036, 95.417 112.079 C 94.252 112.127, 94.015 112.364, 94.813 112.683 M 102.500 112.655 C 103.600 112.888, 105.541 113.301, 106.813 113.574 C 108.200 113.871, 109.686 115.357, 110.524 117.285 C 111.378 119.249, 111.937 119.801, 111.961 118.705 C 112.027 115.649, 107.488 111.986, 103.795 112.116 C 101.880 112.183, 101.338 112.409, 102.500 112.655 M 119.757 114.250 C 118.462 115.487, 118.228 115.853, 119.237 115.062 C 120.246 114.272, 122.968 113.316, 125.286 112.938 L 129.500 112.250 125.806 112.125 C 123.219 112.038, 121.406 112.675, 119.757 114.250 M 140.427 113.329 C 140.147 114.060, 140.068 118.673, 140.253 123.579 L 140.589 132.500 140.794 122.750 C 140.977 114.104, 141.204 113, 142.800 113 C 143.790 113, 145.089 113.489, 145.687 114.087 C 146.470 114.870, 146.989 114.827, 147.542 113.933 C 148.019 113.160, 147.899 112.945, 147.224 113.362 C 146.627 113.731, 145.856 113.575, 145.510 113.016 C 144.602 111.547, 141.027 111.767, 140.427 113.329 M 149 112.383 C 149 112.594, 149.900 113.002, 151 113.290 C 152.100 113.577, 153 113.405, 153 112.906 C 153 112.408, 152.100 112, 151 112 C 149.900 112, 149 112.173, 149 112.383 M 156.336 113.567 C 156.005 114.429, 156.132 115.532, 156.617 116.017 C 157.128 116.528, 157.500 115.866, 157.500 114.450 C 157.500 111.611, 157.180 111.368, 156.336 113.567 M 182.250 112.689 C 183.213 112.941, 184.787 112.941, 185.750 112.689 C 186.713 112.438, 185.925 112.232, 184 112.232 C 182.075 112.232, 181.287 112.438, 182.250 112.689 M 203.750 112.706 C 204.988 112.944, 207.012 112.944, 208.250 112.706 C 209.488 112.467, 208.475 112.272, 206 112.272 C 203.525 112.272, 202.512 112.467, 203.750 112.706 M 92.453 125.748 L 92.500 138.500 95.500 138.500 C 98.373 138.500, 98.505 138.309, 98.610 134 L 98.720 129.500 98.302 133.750 C 97.938 137.460, 97.579 138, 95.472 138 C 93.068 138, 93.059 137.956, 92.733 125.498 L 92.407 112.997 92.453 125.748 M 98 114.059 C 98 114.641, 98.450 114.840, 99 114.500 C 99.550 114.160, 100 113.684, 100 113.441 C 100 113.198, 99.550 113, 99 113 C 98.450 113, 98 113.477, 98 114.059 M 168.731 114.920 C 168.296 116.583, 168.426 116.974, 169.168 116.232 C 169.750 115.650, 170.028 114.585, 169.788 113.863 C 169.538 113.114, 169.085 113.568, 168.731 114.920 M 176.494 115.006 C 173.938 117.831, 175.026 118.093, 177.714 115.301 C 178.932 114.035, 179.564 113, 179.119 113 C 178.674 113, 177.493 113.903, 176.494 115.006 M 190.086 115.618 C 191.414 117.333, 192.701 118.557, 192.947 118.338 C 193.193 118.119, 192.106 116.716, 190.533 115.220 L 187.672 112.500 190.086 115.618 M 198.872 114.750 C 197.629 116.336, 197.664 116.371, 199.250 115.128 C 200.213 114.373, 201 113.585, 201 113.378 C 201 112.555, 200.179 113.084, 198.872 114.750 M 212.120 114.500 C 213.010 115.600, 213.987 117.175, 214.291 118 C 214.759 119.273, 214.854 119.259, 214.921 117.905 C 214.964 117.028, 213.988 115.453, 212.750 114.405 C 210.519 112.516, 210.514 112.517, 212.120 114.500 M 86.080 116 C 87.538 119.061, 88 119.628, 88 118.358 C 88 117.821, 87.300 116.509, 86.445 115.441 C 84.978 113.611, 84.958 113.643, 86.080 116 M 133.100 115.705 C 133.829 116.917, 134.640 117.694, 134.903 117.431 C 135.166 117.168, 134.570 116.176, 133.579 115.226 C 131.857 113.577, 131.835 113.598, 133.100 115.705 M 151 117 C 149.718 117.828, 149.754 117.972, 151.250 117.985 C 152.213 117.993, 153 117.550, 153 117 C 153 115.780, 152.887 115.780, 151 117 M 203.675 116.658 C 202.693 117.640, 205.003 120.009, 206.872 119.937 C 207.905 119.896, 207.586 119.475, 206 118.784 C 203.887 117.864, 203.778 117.629, 205.298 117.265 C 206.287 117.028, 207.862 117.435, 208.798 118.167 C 210.330 119.367, 210.363 119.325, 209.128 117.750 C 207.751 115.995, 204.908 115.426, 203.675 116.658 M 75.459 118.067 C 75.096 118.653, 75.014 119.348, 75.276 119.610 C 75.538 119.872, 76.019 119.392, 76.345 118.543 C 77.021 116.781, 76.445 116.471, 75.459 118.067 M 99.200 118.200 C 98.540 118.860, 98.067 120.773, 98.150 122.450 L 98.300 125.500 98.738 122.500 C 98.980 120.850, 99.642 118.938, 100.211 118.250 C 101.530 116.655, 100.782 116.618, 99.200 118.200 M 104.564 118.293 C 104.940 119.279, 105.499 119.834, 105.807 119.526 C 106.115 119.219, 105.808 118.412, 105.124 117.733 C 104.136 116.753, 104.022 116.868, 104.564 118.293 M 122.459 118.067 C 121.433 119.727, 122.354 119.957, 123.789 118.399 C 124.499 117.630, 124.638 117, 124.098 117 C 123.559 117, 122.821 117.480, 122.459 118.067 M 128.237 119.240 C 128.931 120.722, 129.665 121.455, 129.866 120.869 C 130.067 120.283, 129.499 119.070, 128.603 118.174 C 127.097 116.668, 127.069 116.749, 128.237 119.240 M 159.157 122.316 C 158.994 128.339, 160.182 132.011, 162.285 131.985 C 163.044 131.975, 162.937 131.614, 162 131.022 C 161.022 130.404, 160.294 127.715, 159.907 123.288 L 159.315 116.500 159.157 122.316 M 165.185 121.844 C 165.024 126.497, 165.269 127.258, 167.081 127.731 C 168.515 128.106, 169.010 128.854, 168.674 130.139 C 168.406 131.164, 168.595 131.751, 169.093 131.442 C 170.712 130.442, 170.052 127.826, 168.049 127.302 C 166.499 126.897, 166.022 125.733, 165.734 121.646 L 165.370 116.500 165.185 121.844 M 180.459 118.067 C 180.096 118.653, 180.014 119.348, 180.276 119.610 C 180.538 119.872, 181.019 119.392, 181.345 118.543 C 182.021 116.781, 181.445 116.471, 180.459 118.067 M 185.564 118.293 C 185.940 119.279, 186.499 119.834, 186.807 119.526 C 187.115 119.219, 186.808 118.412, 186.124 117.733 C 185.136 116.753, 185.022 116.868, 185.564 118.293 M 147.221 119.250 C 146.037 120.696, 145.126 132.046, 146.250 131.348 C 146.662 131.092, 147 128.524, 147 125.641 C 147 122.758, 147.540 119.860, 148.200 119.200 C 148.860 118.540, 149.140 118, 148.822 118 C 148.505 118, 147.784 118.563, 147.221 119.250 M 69.252 122.500 C 69.263 124.700, 69.468 125.482, 69.707 124.238 C 69.946 122.994, 69.937 121.194, 69.687 120.238 C 69.437 119.282, 69.241 120.300, 69.252 122.500 M 135.252 122.500 C 135.263 124.700, 135.468 125.482, 135.707 124.238 C 135.946 122.994, 135.937 121.194, 135.687 120.238 C 135.437 119.282, 135.241 120.300, 135.252 122.500 M 174.252 122.500 C 174.263 124.700, 174.468 125.482, 174.707 124.238 C 174.946 122.994, 174.937 121.194, 174.687 120.238 C 174.437 119.282, 174.241 120.300, 174.252 122.500 M 45.195 122.500 C 45.215 124.150, 45.439 124.704, 45.693 123.731 C 45.947 122.758, 45.930 121.408, 45.656 120.731 C 45.382 120.054, 45.175 120.850, 45.195 122.500 M 51.079 121.816 C 50.956 125.410, 52.808 128, 55.500 128 C 58.192 128, 60.044 125.410, 59.921 121.816 C 59.837 119.336, 59.531 119.885, 58.568 124.250 C 58.107 126.341, 57.372 127, 55.500 127 C 53.628 127, 52.893 126.341, 52.432 124.250 C 51.469 119.885, 51.163 119.336, 51.079 121.816 M 88.158 122 C 88.158 123.375, 88.385 123.938, 88.662 123.250 C 88.940 122.563, 88.940 121.438, 88.662 120.750 C 88.385 120.063, 88.158 120.625, 88.158 122 M 106.079 122.583 C 106.127 123.748, 106.364 123.985, 106.683 123.188 C 106.972 122.466, 106.936 121.603, 106.604 121.271 C 106.272 120.939, 106.036 121.529, 106.079 122.583 M 112.079 122.583 C 112.127 123.748, 112.364 123.985, 112.683 123.188 C 112.972 122.466, 112.936 121.603, 112.604 121.271 C 112.272 120.939, 112.036 121.529, 112.079 122.583 M 121.079 122.583 C 121.127 123.748, 121.364 123.985, 121.683 123.188 C 121.972 122.466, 121.936 121.603, 121.604 121.271 C 121.272 120.939, 121.036 121.529, 121.079 122.583 M 192.564 122.707 C 192.022 124.132, 192.136 124.247, 193.124 123.267 C 193.808 122.588, 194.115 121.781, 193.807 121.474 C 193.499 121.166, 192.940 121.721, 192.564 122.707 M 128.791 124.691 C 128.473 125.909, 127.213 127.024, 125.866 127.279 C 123.728 127.684, 123.705 127.741, 125.628 127.864 C 128.035 128.018, 130.401 125.702, 129.770 123.809 C 129.536 123.107, 129.104 123.496, 128.791 124.691 M 75.030 124.550 C 74.949 127.372, 81.036 129.369, 82.500 127 C 82.840 126.450, 84.040 126, 85.166 126 C 86.606 126, 87.037 126.461, 86.618 127.552 C 86.277 128.442, 86.445 128.843, 87.011 128.493 C 87.555 128.157, 88 127.234, 88 126.441 C 88 124.795, 83.469 124.432, 82.500 126 C 81.487 127.638, 77.178 127.135, 76.080 125.250 C 75.519 124.287, 75.047 123.972, 75.030 124.550 M 206.814 125.055 C 208.206 125.613, 208.842 126.446, 208.410 127.146 C 207.952 127.886, 208.128 128.039, 208.894 127.565 C 210.488 126.581, 208.429 123.974, 206.128 124.063 C 205.056 124.105, 205.291 124.444, 206.814 125.055 M 105 125.947 C 105 126.795, 104.006 127.081, 102.053 126.794 C 100.432 126.557, 99.333 126.730, 99.612 127.181 C 100.347 128.370, 104.767 128.186, 105.541 126.933 C 105.904 126.347, 105.930 125.597, 105.600 125.267 C 105.270 124.937, 105 125.243, 105 125.947 M 111.079 125.936 C 111.036 126.725, 110 128.525, 108.778 129.936 L 106.556 132.500 109.398 129.858 C 110.960 128.405, 111.995 126.605, 111.698 125.858 C 111.262 124.762, 111.143 124.777, 111.079 125.936 M 116 125.723 C 116 126.303, 116.927 127.841, 118.059 129.139 L 120.119 131.500 118.362 128.500 C 116.050 124.552, 116 124.493, 116 125.723 M 187.450 125.915 C 186.928 126.419, 185.375 127.032, 184 127.279 C 181.502 127.727, 181.502 127.728, 184.191 127.864 C 185.671 127.939, 187.160 127.550, 187.500 127 C 188.279 125.740, 192 125.680, 192 126.927 C 192 127.438, 190.814 128.788, 189.365 129.927 C 187.916 131.067, 187.163 132, 187.691 132 C 189.017 132, 193 127.637, 193 126.186 C 193 124.791, 188.827 124.588, 187.450 125.915 M 197 126.309 C 197 127.029, 197.700 128.491, 198.555 129.559 C 200.046 131.420, 200.065 131.406, 199.009 129.229 C 198.403 127.980, 198.180 126.518, 198.513 125.979 C 198.846 125.441, 198.641 125, 198.059 125 C 197.477 125, 197 125.589, 197 126.309 M 202.638 126.500 C 202.955 127.325, 203.671 128, 204.229 128 C 204.815 128, 204.718 127.365, 204 126.500 C 203.315 125.675, 202.599 125, 202.409 125 C 202.219 125, 202.322 125.675, 202.638 126.500 M 46 126.659 C 46 127.205, 47.237 128.742, 48.750 130.076 L 51.500 132.500 49 129.500 C 47.625 127.850, 46.388 126.313, 46.250 126.083 C 46.112 125.854, 46 126.113, 46 126.659 M 70.556 128.278 C 71.308 130.246, 74.841 132.492, 75.752 131.581 C 76.072 131.261, 75.826 131, 75.206 131 C 74.585 131, 73.133 129.988, 71.977 128.750 C 70.378 127.038, 70.039 126.925, 70.556 128.278 M 133.397 128.408 C 132.820 129.911, 129.096 131.645, 125 132.317 C 122.614 132.709, 122.627 132.734, 125.300 132.864 C 128.635 133.026, 133.522 130.689, 134.347 128.537 C 134.672 127.692, 134.712 127, 134.437 127 C 134.162 127, 133.694 127.634, 133.397 128.408 M 212.139 130.033 C 210.841 131.115, 210.209 132, 210.734 132 C 211.260 132, 212.505 131.100, 213.500 130 C 215.787 127.473, 215.195 127.487, 212.139 130.033 M 54.500 132 L 51.500 132.763 54.191 132.882 C 55.671 132.947, 57.160 132.550, 57.500 132 C 57.840 131.450, 57.979 131.053, 57.809 131.118 C 57.639 131.183, 56.150 131.580, 54.500 132 M 180 131.986 C 180.825 132.527, 182.588 132.976, 183.917 132.985 C 187.126 133.005, 186.313 132.436, 182 131.645 C 179.538 131.193, 178.945 131.294, 180 131.986 M 78.269 132.693 C 79.242 132.947, 80.592 132.930, 81.269 132.656 C 81.946 132.382, 81.150 132.175, 79.500 132.195 C 77.850 132.215, 77.296 132.439, 78.269 132.693 M 102.750 132.662 C 103.438 132.940, 104.563 132.940, 105.250 132.662 C 105.938 132.385, 105.375 132.158, 104 132.158 C 102.625 132.158, 102.063 132.385, 102.750 132.662 M 205.269 132.693 C 206.242 132.947, 207.592 132.930, 208.269 132.656 C 208.946 132.382, 208.150 132.175, 206.500 132.195 C 204.850 132.215, 204.296 132.439, 205.269 132.693" stroke="none" fill="#0489b8" fill-rule="evenodd"/><path d="M 5.239 49.250 L 5.479 94.500 5.750 49.750 L 6.021 5 129.500 5 L 252.979 5 253.250 49.750 L 253.521 94.500 253.761 49.250 L 254 4 129.500 4 L 5 4 5.239 49.250 M 152.456 10.255 C 152.191 10.946, 152.092 27.483, 152.237 47.005 L 152.500 82.500 160.250 82.792 L 168 83.084 168 46.042 L 168 9 160.469 9 C 155.349 9, 152.783 9.402, 152.456 10.255 M 153 46 L 153 82 160 82 L 167 82 167 46 L 167 10 160 10 L 153 10 153 46 M 93.637 26.465 C 91.513 27.222, 88.435 29.115, 86.798 30.671 C 81.316 35.881, 80.626 38.294, 80.407 53 L 80.207 66.500 80.918 53 C 81.665 38.825, 82.631 35.474, 87.155 31.375 C 92.069 26.922, 93.917 26.526, 112.500 25.942 L 130.500 25.376 114 25.232 C 102.206 25.129, 96.398 25.481, 93.637 26.465 M 207.500 25.952 C 217.400 26.315, 226.400 26.959, 227.500 27.382 L 229.500 28.151 227.500 26.826 C 226.042 25.859, 220.626 25.472, 207.500 25.395 L 189.500 25.291 207.500 25.952 M 23.901 29.864 C 21.755 32.009, 20.002 34.380, 20.004 35.132 C 20.006 35.885, 20.867 35.090, 21.918 33.367 C 25.754 27.075, 26.108 27, 51.768 27 L 75.091 27 74.796 33.750 L 74.500 40.500 54 41 L 33.500 41.500 33.500 44 L 33.500 46.500 51 47 C 62.574 47.331, 69.262 47.935, 70.750 48.785 C 74.731 51.059, 76.410 54.911, 77.126 63.414 L 77.807 71.500 77.649 63.318 C 77.470 54.028, 75.856 50.774, 69.929 47.752 C 67.081 46.300, 63.744 46.003, 50.250 46.002 C 34.667 46, 34 45.918, 34 44 C 34 42.065, 34.667 42, 54.481 42 L 74.962 42 75.540 39.697 C 75.858 38.430, 75.979 34.942, 75.809 31.947 L 75.500 26.500 51.651 26.232 L 27.801 25.963 23.901 29.864 M 134.422 27.485 C 139.423 29.267, 143.733 33.577, 145.515 38.578 C 146.283 40.735, 146.932 41.683, 146.956 40.684 C 147.088 35.223, 137.766 25.911, 132.300 26.044 C 131.310 26.068, 132.265 26.717, 134.422 27.485 M 186.813 26.683 C 187.534 26.972, 188.397 26.936, 188.729 26.604 C 189.061 26.272, 188.471 26.036, 187.417 26.079 C 186.252 26.127, 186.015 26.364, 186.813 26.683 M 182.507 27.989 C 182.157 28.555, 182.558 28.723, 183.448 28.382 C 185.180 27.717, 185.497 27, 184.059 27 C 183.541 27, 182.843 27.445, 182.507 27.989 M 232.761 30.757 C 234.555 32.443, 236.675 35.325, 237.472 37.162 C 238.269 38.998, 238.939 39.817, 238.961 38.982 C 239.017 36.789, 234.344 30.252, 231.731 28.870 C 230.206 28.063, 230.531 28.660, 232.761 30.757 M 178.323 31.250 C 177.209 32.487, 175.940 34.175, 175.502 35 C 174.658 36.591, 174.888 36.374, 178.939 31.750 C 180.264 30.238, 181.124 29, 180.849 29 C 180.574 29, 179.437 30.012, 178.323 31.250 M 19.185 43.282 C 18.980 50.807, 20.466 55.431, 24.077 58.500 C 26.152 60.264, 26.114 60.113, 23.755 57.221 C 20.939 53.769, 20.199 51, 19.684 42 C 19.384 36.741, 19.362 36.797, 19.185 43.282 M 109.280 39.736 C 111.909 39.943, 115.959 39.940, 118.280 39.731 C 120.601 39.521, 118.450 39.352, 113.500 39.355 C 108.550 39.358, 106.651 39.530, 109.280 39.736 M 202.280 39.736 C 204.909 39.943, 208.959 39.940, 211.280 39.731 C 213.601 39.521, 211.450 39.352, 206.500 39.355 C 201.550 39.358, 199.651 39.530, 202.280 39.736 M 97.405 42.105 C 95.787 43.893, 95.500 45.788, 95.500 54.693 C 95.500 69.023, 95.471 69, 114 69 C 132.350 69, 132.448 68.928, 132.638 55.339 L 132.775 45.500 132.130 55.336 C 131.284 68.231, 131.615 68, 114 68 C 96.359 68, 96.591 68.159, 96.216 55.832 C 95.887 45.027, 97.019 41.839, 101.527 40.873 C 104.370 40.264, 104.387 40.231, 101.905 40.118 C 100.418 40.051, 98.497 40.899, 97.405 42.105 M 126.239 40.715 C 127.746 40.944, 129.658 42.101, 130.489 43.288 C 131.320 44.474, 132 44.965, 132 44.377 C 132 42.488, 128.416 39.995, 125.921 40.150 C 123.699 40.287, 123.726 40.334, 126.239 40.715 M 173.232 43 C 173.232 44.925, 173.438 45.712, 173.689 44.750 C 173.941 43.788, 173.941 42.212, 173.689 41.250 C 173.438 40.288, 173.232 41.075, 173.232 43 M 193.269 40.693 C 194.242 40.947, 195.592 40.930, 196.269 40.656 C 196.946 40.382, 196.150 40.175, 194.500 40.195 C 192.850 40.215, 192.296 40.439, 193.269 40.693 M 216.083 40.356 C 216.313 40.552, 218.075 41.002, 220 41.355 C 222.462 41.807, 223.055 41.706, 222 41.014 C 220.644 40.125, 215.092 39.508, 216.083 40.356 M 239.217 54.185 C 239.098 61.712, 238.520 69.137, 237.933 70.685 C 236.626 74.135, 233.482 77.656, 229.500 80.129 C 227.850 81.154, 227.073 81.994, 227.772 81.996 C 230.189 82.003, 237.978 73.807, 239.054 70.125 C 239.649 68.086, 239.965 60.811, 239.774 53.500 L 239.435 40.500 239.217 54.185 M 147.208 54 C 146.949 67.570, 145.957 71.763, 141.819 76.777 L 138.746 80.500 142.313 76.830 C 147.030 71.977, 148.130 67.308, 147.747 53.771 L 147.428 42.500 147.208 54 M 188.158 46 C 188.158 47.375, 188.385 47.938, 188.662 47.250 C 188.940 46.563, 188.940 45.438, 188.662 44.750 C 188.385 44.063, 188.158 44.625, 188.158 46 M 224.365 54.500 C 224.368 60, 224.536 62.122, 224.738 59.216 C 224.941 56.311, 224.939 51.811, 224.734 49.216 C 224.528 46.622, 224.363 49, 224.365 54.500 M 172.495 57.711 C 172.694 63.877, 173.345 69.727, 173.942 70.711 C 174.829 72.173, 174.909 71.979, 174.381 69.652 C 174.025 68.086, 173.374 62.236, 172.934 56.652 L 172.134 46.500 172.495 57.711 M 187.286 54.500 C 187.294 57.250, 187.488 58.256, 187.718 56.736 C 187.947 55.216, 187.941 52.966, 187.704 51.736 C 187.467 50.506, 187.279 51.750, 187.286 54.500 M 27.822 61.225 C 28.222 61.623, 36.188 62.073, 45.525 62.225 C 61.742 62.488, 62.500 62.589, 62.500 64.500 C 62.500 66.429, 61.743 66.510, 41.250 66.770 L 20 67.040 20 75.070 L 20 83.099 44.452 82.800 C 62.990 82.572, 69.218 82.182, 70.202 81.187 C 71.272 80.104, 71.007 80.060, 68.685 80.937 C 67.002 81.572, 56.844 82, 43.435 82 L 21 82 21 75 L 21 68 41.378 68 C 58.750 68, 61.949 67.766, 63.070 66.416 C 64.022 65.269, 64.095 64.373, 63.336 63.166 C 62.443 61.747, 59.674 61.426, 44.690 61 C 35.012 60.725, 27.421 60.826, 27.822 61.225 M 188.090 62.750 C 188.041 63.987, 188.900 65.900, 190 67 C 191.836 68.836, 193.171 68.982, 206.250 68.783 L 220.500 68.565 207.500 68.288 C 191.021 67.937, 190.275 67.753, 189.115 63.737 C 188.392 61.234, 188.160 61.010, 188.090 62.750 M 221.872 66.750 C 220.629 68.336, 220.664 68.371, 222.250 67.128 C 223.213 66.373, 224 65.585, 224 65.378 C 224 64.555, 223.179 65.084, 221.872 66.750 M 81.044 68.300 C 80.923 73.265, 88.295 81.155, 94.723 82.940 C 96.800 83.517, 105.700 83.907, 114.500 83.807 L 130.500 83.624 112.500 83.052 C 93.284 82.440, 91.026 81.895, 86.165 76.690 C 84.880 75.315, 83.213 72.459, 82.459 70.345 C 81.705 68.230, 81.068 67.310, 81.044 68.300 M 175.785 74.511 C 176.351 75.617, 177.869 77.414, 179.157 78.504 C 181.417 80.416, 181.412 80.380, 179.015 77.493 C 175.033 72.697, 174.697 72.387, 175.785 74.511 M 73.511 77.623 C 72.566 79.066, 72.287 79.941, 72.891 79.567 C 74.045 78.854, 76.374 75, 75.650 75 C 75.419 75, 74.457 76.180, 73.511 77.623 M 134 81.585 C 130.725 82.926, 130.692 82.981, 133.500 82.438 C 135.150 82.119, 136.928 81.440, 137.450 80.929 C 138.648 79.758, 138.303 79.823, 134 81.585 M 182.553 81.086 C 183.776 83.065, 191.533 83.985, 206.500 83.924 C 215.300 83.889, 223.275 83.554, 224.222 83.180 C 225.169 82.806, 217.964 82.647, 208.211 82.828 C 194.607 83.079, 189.495 82.816, 186.256 81.700 C 183.934 80.900, 182.267 80.624, 182.553 81.086 M 68.327 93.750 C 102.333 93.896, 157.683 93.896, 191.327 93.750 C 224.972 93.604, 197.150 93.484, 129.500 93.484 C 61.850 93.484, 34.322 93.604, 68.327 93.750" stroke="none" fill="#d50857" fill-rule="evenodd"/></svg>